<?xml version="1.0" standalone="no"?>
<!DOCTYPE svg PUBLIC "-//W3C//DTD SVG 20010904//EN"
 "http://www.w3.org/TR/2001/REC-SVG-20010904/DTD/svg10.dtd">
<svg version="1.0" xmlns="http://www.w3.org/2000/svg"
 width="900.000000pt" height="579.000000pt" viewBox="0 0 900.000000 579.000000"
 preserveAspectRatio="xMidYMid meet">

<g transform="translate(0.000000,579.000000) scale(0.100000,-0.100000)"
fill="#000000" stroke="none">
<path d="M0 5767 c0 -13 6 -29 13 -36 10 -11 10 -13 0 -7 -10 6 -13 -88 -13
-453 0 -282 4 -461 9 -461 6 0 13 5 17 12 4 7 3 8 -4 4 -8 -5 -10 -2 -6 9 6
14 8 14 19 -1 11 -15 13 -12 21 22 11 54 11 59 -3 60 -7 1 -17 2 -23 3 -19 2
-10 40 21 89 17 27 43 87 59 133 16 46 33 82 37 79 10 -6 5 -83 -6 -113 -6
-15 -4 -26 5 -35 22 -21 44 -14 64 22 16 26 25 32 45 28 20 -3 24 -1 20 16 -2
12 -8 30 -14 41 -8 13 -8 22 -1 26 6 4 10 12 9 18 -1 7 3 25 9 40 7 16 12 32
12 37 0 5 12 17 26 26 24 16 29 16 72 1 26 -8 64 -18 85 -22 33 -5 37 -9 37
-35 0 -28 1 -29 28 -20 15 6 37 15 49 22 29 14 51 4 63 -29 22 -59 32 -73 47
-61 20 16 28 2 9 -17 -21 -22 -20 -28 4 -20 11 3 25 3 32 -2 7 -4 20 -8 28 -8
9 0 19 -15 24 -37 5 -21 14 -38 20 -38 7 0 11 -22 11 -53 0 -49 -2 -53 -32
-67 -18 -8 -31 -21 -28 -28 3 -8 -3 -10 -19 -6 -13 3 -26 1 -30 -4 -3 -5 -17
-7 -32 -4 -23 4 -25 3 -16 -14 6 -11 24 -28 41 -39 40 -26 44 -40 26 -75 -31
-60 -87 -49 -173 34 -49 47 -65 48 -207 21 -85 -16 -89 -18 -100 -52 -6 -22
-3 -23 40 -23 59 0 165 -36 187 -63 11 -14 14 -32 11 -56 -8 -53 -21 -71 -58
-87 -50 -20 -103 -17 -162 11 -53 24 -69 21 -57 -10 6 -15 -4 -16 -105 -13
-101 3 -111 1 -111 -15 0 -16 9 -17 118 -11 115 6 258 -9 352 -38 108 -33 255
-122 320 -195 46 -52 53 -74 12 -44 -149 115 -365 201 -545 216 -126 10 -203
13 -229 8 l-27 -5 -1 -277 0 -278 21 1 c12 1 24 -5 27 -13 3 -10 -2 -13 -22
-9 l-26 5 0 -98 c0 -91 1 -98 20 -101 12 -2 20 -7 20 -13 -1 -5 -10 -9 -20 -7
-19 3 -20 -4 -20 -265 l0 -268 102 1 c75 0 81 0 23 -3 -128 -5 -125 -3 -125
-74 0 -51 3 -60 17 -57 9 2 21 18 25 36 8 29 28 46 28 22 0 -5 9 -10 20 -10
11 0 20 -4 20 -10 0 -12 -16 -13 -38 -1 -14 8 -17 3 -20 -26 -2 -30 0 -34 15
-28 10 4 28 10 41 12 31 7 35 17 23 58 -10 36 3 44 25 16 8 -10 13 -11 18 -3
4 6 13 9 21 6 8 -4 12 -10 10 -15 -3 -4 4 -18 15 -29 17 -17 19 -24 9 -36 -9
-11 -9 -14 2 -14 12 0 12 -2 1 -9 -8 -4 -13 -11 -13 -15 1 -3 1 -16 0 -28 -1
-16 -5 -11 -13 17 -8 25 -19 40 -29 40 -8 0 -19 3 -22 7 -10 10 -35 -2 -35
-17 0 -7 -22 -29 -49 -49 -52 -39 -68 -63 -51 -80 13 -13 13 -26 -1 -26 -5 0
-7 5 -3 12 4 6 3 8 -3 5 -6 -4 -11 -61 -12 -132 l-2 -125 25 9 c30 12 36 6 36
-35 0 -34 -29 -62 -50 -49 -6 4 -10 -7 -10 -25 0 -25 4 -31 15 -26 19 7 19 -8
0 -24 -11 -10 -15 -36 -15 -110 0 -82 3 -99 17 -104 17 -7 36 12 27 26 -6 10
10 11 20 1 4 -4 24 -6 44 -5 21 1 31 -1 22 -6 -8 -4 -25 -13 -37 -21 -19 -13
-20 -16 -6 -26 8 -6 17 -23 18 -37 2 -15 6 -41 10 -58 6 -27 2 -37 -25 -65
-18 -19 -46 -39 -61 -46 -25 -10 -29 -17 -28 -48 0 -20 3 -30 6 -24 2 7 24 26
48 42 36 24 52 29 86 26 l41 -5 -17 26 c-9 14 -14 28 -12 31 13 13 38 -47 34
-83 -4 -39 9 -84 25 -84 4 0 8 -8 8 -19 0 -15 -7 -18 -37 -17 -21 0 -41 6 -45
11 -5 6 -8 5 -8 -2 0 -21 -37 -35 -60 -23 -11 6 -17 16 -14 22 4 7 2 8 -5 4
-6 -4 -19 -2 -27 5 -12 10 -13 9 -9 -3 3 -8 17 -21 31 -29 23 -12 24 -14 7
-20 -26 -11 -43 -10 -43 1 0 5 7 7 15 4 8 -4 15 -1 15 6 0 6 -8 10 -17 8 -12
-2 -19 -14 -21 -34 -3 -26 1 -33 20 -38 37 -9 118 -7 118 4 0 6 8 5 19 -2 11
-7 18 -15 15 -19 -8 -14 -113 -21 -144 -11 -24 9 -30 8 -30 -3 0 -29 172 -30
310 0 14 3 7 -2 -15 -11 -26 -11 -84 -18 -167 -21 l-128 -6 0 -828 0 -829 281
0 c263 0 281 1 275 18 -6 16 -5 16 8 -1 12 -15 27 -17 97 -15 l83 3 -32 32
c-26 26 -28 30 -10 25 11 -3 28 -18 37 -33 l16 -29 458 0 c251 0 457 1 457 3
0 1 -6 36 -14 77 -31 159 -53 645 -37 797 17 163 58 226 187 284 111 50 339
97 554 114 102 8 117 12 124 32 3 10 9 24 12 31 4 8 -3 12 -21 12 -40 0 -92
28 -117 63 l-21 30 28 51 c37 68 39 70 65 56 17 -9 121 -40 135 -40 2 0 13 16
25 34 11 19 38 45 58 58 53 33 82 67 81 97 0 25 -1 25 -9 4 -11 -26 -52 -21
-43 5 4 15 3 16 -9 1 -7 -9 -19 -15 -26 -13 -7 1 -8 0 -2 -3 5 -2 8 -8 6 -12
-3 -4 8 -5 25 -3 16 2 29 0 29 -5 0 -20 -49 -54 -86 -60 -21 -3 -47 -13 -57
-21 -9 -8 -20 -12 -24 -9 -3 4 -1 7 5 7 7 0 12 5 12 10 0 16 -58 11 -88 -7
-15 -9 -24 -13 -20 -9 10 12 -46 56 -84 67 -18 5 -53 27 -78 48 l-45 39 35 71
c18 39 38 71 43 71 18 0 47 -21 47 -35 0 -23 37 -55 65 -55 22 0 24 2 15 26
-13 33 -13 34 4 28 23 -9 27 25 6 59 -38 62 -19 108 64 153 26 15 29 14 52 -7
l24 -22 0 40 c0 48 12 60 71 72 24 5 54 13 66 16 20 6 25 1 41 -34 l17 -42 29
30 c38 39 82 41 120 6 26 -24 26 -25 10 -56 -25 -50 -14 -55 111 -46 39 3 57
4 40 1 -16 -2 -54 -9 -82 -16 -46 -10 -52 -14 -47 -32 3 -14 -3 -32 -17 -49
-12 -16 -20 -29 -18 -30 2 -1 19 -12 37 -25 31 -22 33 -22 68 -6 37 18 63 12
72 -16 3 -9 0 -10 -9 -4 -39 24 -69 -2 -69 -59 0 -18 2 -19 10 -7 8 12 10 10
10 -9 0 -20 4 -22 25 -17 20 5 25 3 25 -13 0 -19 14 -22 38 -8 8 6 12 1 14
-12 0 -12 1 -26 2 -33 1 -7 -24 -17 -59 -25 -75 -15 -115 -16 -115 -2 0 5 4 8
8 5 5 -3 9 2 9 10 0 11 -6 14 -21 9 -12 -4 -29 -7 -38 -6 -28 0 -21 -14 16
-30 25 -12 48 -14 92 -8 33 4 87 8 121 8 34 1 92 7 130 15 37 8 97 17 133 20
54 5 61 4 40 -5 -14 -7 -32 -11 -40 -10 -9 1 -5 -6 9 -18 l25 -19 -67 3 c-37
1 -70 -1 -72 -6 -15 -23 142 -41 222 -25 36 7 44 6 49 -8 4 -9 -1 -25 -10 -35
-9 -10 -16 -26 -16 -37 -1 -21 -70 -58 -132 -69 -21 -4 -38 -11 -38 -15 0 -17
-511 12 -535 30 -12 9 -110 38 -147 42 -15 2 -31 7 -35 12 -4 4 -3 6 2 5 6 -2
33 0 60 4 49 7 184 -4 217 -18 14 -6 16 -1 11 37 -7 58 -34 85 -93 93 -37 5
-52 13 -69 36 l-22 29 -57 -61 c-31 -34 -67 -80 -79 -103 -19 -37 -19 -42 -5
-42 10 -1 41 -4 71 -8 56 -6 80 -15 45 -17 -18 0 -18 -1 1 -8 11 -5 44 -12 72
-16 29 -4 55 -11 59 -16 3 -5 11 -9 17 -9 7 0 6 4 -3 11 -13 9 -13 10 0 6 22
-6 24 -36 3 -44 -10 -4 -23 -13 -29 -21 -6 -8 -16 -12 -22 -9 -5 4 -21 3 -34
-2 l-23 -10 23 -7 c12 -3 22 -11 22 -16 0 -5 -10 -6 -21 -3 -14 5 -19 3 -15
-3 17 -27 -73 -24 -141 5 -26 10 -33 11 -33 1 0 -28 18 -35 100 -42 231 -18
318 -76 370 -244 25 -81 50 -223 59 -337 l7 -90 13 44 c20 70 87 132 205 190
177 87 434 174 710 242 147 35 277 40 341 10 59 -27 112 -92 165 -205 92 -194
260 -751 260 -863 l0 -33 2065 0 2065 0 0 2165 c0 1191 -3 2165 -6 2165 -17 0
-174 -52 -179 -60 -8 -13 -54 13 -59 35 -7 28 1 -71 14 -188 17 -147 9 -263
-21 -310 -48 -76 -233 -143 -534 -193 -181 -29 -304 -39 -490 -39 -120 1 -150
4 -209 24 -117 40 -178 119 -244 316 -75 226 -115 449 -116 650 -1 323 73 404
430 470 75 14 139 25 144 25 4 0 -5 32 -22 72 -16 40 -34 105 -40 145 -6 40
-15 73 -18 73 -4 0 -46 -25 -95 -55 -48 -30 -93 -55 -101 -55 -8 0 -14 -4 -14
-9 0 -19 31 -81 40 -81 7 0 7 -7 0 -20 -6 -11 -8 -25 -5 -30 3 -5 1 -11 -5
-15 -5 -3 -10 2 -10 12 0 11 -7 28 -15 39 -8 10 -15 26 -15 34 -1 46 -15 42
-201 -56 -101 -53 -237 -127 -301 -165 -64 -38 -120 -69 -125 -69 -4 -1 -22
-13 -40 -28 l-32 -27 40 3 c107 11 189 -30 189 -93 0 -27 -7 -39 -32 -58 -63
-47 -95 -58 -148 -51 -27 3 -59 4 -72 1 -22 -6 -23 -11 -24 -89 -1 -103 -28
-191 -60 -196 -26 -4 -38 22 -24 49 6 10 8 30 4 43 -8 33 -49 70 -69 62 -8 -3
-44 0 -79 8 l-64 13 -22 -29 c-21 -28 -21 -30 -3 -43 10 -7 21 -11 25 -9 5 3
8 0 8 -5 0 -6 -3 -11 -8 -11 -4 0 -6 -17 -4 -39 3 -31 -4 -52 -39 -111 -24
-40 -49 -75 -56 -77 -7 -3 -13 -11 -13 -18 0 -19 -21 -32 -63 -39 -50 -8 -56
9 -34 93 14 51 15 66 5 73 -24 15 -27 8 -30 -79 l-3 -88 -14 59 c-8 32 -21 64
-28 71 -7 8 -13 26 -14 42 l-1 28 -10 -27 c-5 -16 -14 -28 -19 -28 -6 0 -5 8
1 20 13 23 -7 28 -29 8 -8 -7 -6 -1 4 15 11 17 13 27 6 27 -6 0 -14 -7 -18
-16 -3 -8 -11 -13 -19 -10 -7 3 -24 -4 -37 -15 -26 -20 -47 -25 -47 -11 0 4
-15 9 -32 10 -18 1 -39 10 -47 20 -12 16 -13 15 -8 -5 6 -27 8 -27 -31 -7 -29
14 -32 19 -32 65 0 47 1 49 43 71 l42 22 -60 13 c-33 7 -70 14 -82 14 -13 1
-23 7 -23 13 0 16 30 58 54 76 26 19 104 48 134 49 12 1 22 7 22 16 0 8 6 12
14 9 31 -12 25 19 -11 64 -21 26 -45 60 -52 77 -12 28 -11 31 24 60 l36 31
-73 12 c-40 7 -83 9 -95 6 -44 -12 -95 58 -52 71 11 4 19 13 19 21 0 8 10 14
23 14 18 0 19 2 7 10 -13 8 -13 11 -1 19 20 13 5 30 -22 25 -12 -2 -16 -1 -9
2 21 10 -5 33 -30 26 -16 -4 -19 -2 -13 8 6 9 4 11 -5 5 -7 -4 -15 -2 -20 5
-5 8 -9 7 -13 -4 -4 -9 -2 -16 4 -16 6 0 7 -5 4 -11 -4 -6 -1 -10 6 -8 27 3
49 -1 49 -9 0 -5 -11 -8 -24 -8 -31 2 -71 36 -55 47 22 13 -27 173 -64 211 -8
8 -12 20 -8 26 4 7 29 -4 71 -31 36 -23 145 -83 243 -133 138 -70 171 -91 147
-91 -21 0 -27 3 -18 10 9 6 6 7 -10 4 -12 -3 -20 -1 -16 4 3 5 -11 9 -30 9
-24 0 -34 4 -31 13 5 12 -65 50 -95 51 -21 1 -41 16 -36 25 7 11 -63 43 -76
35 -7 -4 -8 -2 -4 4 4 7 2 12 -3 12 -6 0 -11 -5 -11 -10 0 -6 -11 -15 -25 -20
-14 -5 -25 -14 -25 -20 0 -6 4 -8 10 -5 6 3 10 -3 10 -14 0 -12 5 -21 11 -21
6 0 9 -7 5 -15 -3 -8 -1 -14 3 -12 5 1 23 -11 42 -27 18 -17 49 -35 69 -42 46
-17 141 -17 214 1 32 8 73 12 90 9 30 -5 30 -5 9 8 -27 16 -70 93 -48 84 8 -3
17 -1 20 4 4 6 22 10 42 10 40 0 102 26 110 47 3 7 13 13 22 13 14 -1 14 -2
-2 -11 -22 -13 -13 -29 13 -22 11 3 17 10 14 15 -12 19 38 -4 88 -39 26 -19
48 -30 48 -24 0 6 -9 16 -20 23 -24 15 -25 24 -4 32 8 3 26 -1 40 -10 13 -9
24 -13 24 -10 0 4 10 0 22 -8 12 -9 31 -16 41 -16 16 0 117 -29 126 -36 11 -9
17 -88 11 -135 -7 -49 -5 -56 17 -81 14 -14 28 -40 32 -56 l6 -30 85 52 c47
29 146 84 220 121 137 69 264 138 334 182 l38 25 -19 21 c-36 40 -36 52 -1 19
l36 -34 136 77 c127 72 136 79 136 106 0 38 20 77 56 109 21 19 26 21 21 7 -6
-15 -3 -16 13 -7 24 13 101 13 120 -1 12 -8 10 -9 -9 -4 -13 4 -21 3 -18 -2 3
-5 -3 -9 -13 -9 -10 0 -16 4 -14 8 3 4 1 8 -5 8 -6 0 -15 -9 -21 -20 -10 -18
-8 -20 22 -21 18 0 41 -2 51 -4 9 -2 17 3 17 11 0 8 5 14 10 14 6 0 10 -5 10
-12 0 -6 3 -8 6 -5 4 4 -2 19 -12 34 -38 57 -53 93 -39 93 7 0 15 6 17 12 3 7
8 -6 11 -28 10 -62 24 -69 96 -43 65 22 95 20 85 -6 -3 -8 -10 -13 -14 -10
-12 8 -73 -21 -91 -43 -16 -19 -16 -20 6 -18 13 0 21 5 18 9 -2 4 11 7 31 5
19 -1 33 -5 30 -9 -2 -4 -14 -5 -27 -2 -18 4 -19 3 -7 -6 8 -6 10 -11 4 -11
-7 0 -15 -7 -18 -16 -3 -8 -2 -12 4 -9 15 9 70 -24 70 -41 0 -13 3 -14 15 -4
12 10 14 8 10 -9 -2 -14 1 -21 11 -21 8 0 12 5 9 10 -3 6 -1 10 5 10 7 0 5 7
-4 16 -18 17 -21 28 -6 19 16 -10 12 4 -12 38 -21 32 -21 32 0 12 12 -11 28
-37 37 -57 14 -36 14 -39 -5 -55 -11 -10 -20 -24 -20 -31 0 -10 4 -9 16 3 9 9
18 14 21 12 8 -8 -28 -131 -53 -180 l-23 -47 67 7 c119 14 333 9 372 -9 79
-36 126 -111 154 -243 15 -71 34 -130 35 -108 1 16 37 3 143 -52 45 -24 84
-49 84 -57 1 -7 5 -23 9 -35 4 -12 6 -25 5 -29 -1 -4 4 -11 12 -16 11 -8 11
-10 0 -15 -10 -4 -10 -9 3 -23 15 -16 14 -18 -7 -23 -13 -3 -52 -2 -88 2 -64
8 -95 6 -49 -3 78 -15 145 -30 153 -34 5 -3 2 -10 -7 -17 -14 -10 -12 -12 13
-12 l30 0 0 316 0 316 -46 44 c-55 53 -76 93 -108 207 -14 49 -32 109 -41 133
-8 24 -15 45 -15 47 0 3 24 -12 52 -32 59 -40 111 -64 139 -64 18 0 19 11 19
190 l0 190 -601 0 c-477 0 -599 -3 -593 -12 5 -8 0 -7 -11 2 -15 12 -17 12
-10 1 6 -11 4 -13 -10 -7 -18 6 -18 6 -2 -12 9 -10 17 -22 17 -27 0 -5 -13 6
-28 23 -16 18 -35 32 -42 32 -9 0 -5 -10 11 -27 13 -15 16 -21 7 -14 -13 10
-18 10 -18 2 0 -7 -5 -9 -10 -6 -6 4 -7 12 -4 18 4 7 4 9 -1 5 -4 -4 -14 -3
-22 4 -7 6 -16 8 -19 5 -7 -6 25 -39 61 -63 15 -10 24 -23 21 -31 -3 -7 3 -22
14 -33 18 -18 18 -20 3 -20 -15 0 -16 -2 -3 -10 8 -5 11 -10 7 -10 -26 0 -217
121 -251 159 l-19 21 -3749 0 -3748 0 0 -23z m6793 -23 c34 -14 69 -32 77 -39
8 -7 26 -16 40 -20 14 -3 47 -26 73 -50 45 -40 47 -44 29 -54 -19 -10 -32 -6
-32 11 0 5 5 6 10 3 18 -11 11 11 -10 30 -11 10 -28 15 -39 12 -13 -3 -18 -1
-15 8 5 11 -51 45 -74 45 -6 0 -12 3 -14 8 -1 4 -29 20 -60 36 -53 26 -67 36
-53 36 3 0 34 -12 68 -26z m978 -31 c13 -16 12 -17 -3 -4 -10 7 -18 15 -18 17
0 8 8 3 21 -13z m-7626 -140 c-8 -16 -9 -15 -13 7 -2 14 -11 34 -20 45 -9 11
-3 8 12 -7 22 -19 27 -31 21 -45z m6395 57 c8 -5 12 -11 10 -14 -3 -2 -14 2
-24 10 -22 15 -10 19 14 4z m56 -24 c16 -8 103 -42 194 -76 207 -78 412 -161
407 -166 -2 -2 -34 7 -71 20 -37 14 -74 22 -82 19 -8 -3 -14 0 -14 6 0 6 -12
11 -26 11 -16 0 -23 4 -18 11 4 8 0 8 -15 0 -17 -10 -21 -9 -21 4 0 8 -8 16
-17 17 -10 0 -23 2 -30 2 -6 1 -14 4 -18 7 -3 4 -22 3 -41 -1 -31 -7 -34 -6
-34 14 0 17 -2 18 -10 6 -5 -8 -10 -11 -10 -5 0 5 -5 4 -12 -3 -7 -7 -19 -12
-27 -12 -11 0 -11 3 4 14 17 12 17 13 -9 20 -15 4 -25 10 -22 14 2 4 -16 8
-41 8 -29 1 -40 -2 -32 -7 10 -6 8 -9 -8 -9 -13 0 -23 4 -23 9 0 4 -33 6 -74
4 -44 -3 -82 -1 -93 6 -14 9 -12 9 14 5 33 -7 187 13 212 26 9 5 -9 15 -53 30
-36 12 -66 26 -66 31 0 12 2 12 36 -5z m216 -10 c13 -19 9 -26 -13 -26 -13 0
-23 8 -26 20 -4 15 -11 19 -27 15 -16 -5 -18 -4 -6 4 17 12 61 4 72 -13z
m-6623 -91 c-1 -21 -27 61 -28 85 0 14 6 4 14 -25 8 -27 14 -54 14 -60z m6806
47 c14 -12 29 -22 33 -22 4 0 23 -13 42 -30 19 -16 39 -29 43 -30 4 0 18 -10
30 -23 12 -13 33 -31 47 -40 13 -9 20 -17 14 -17 -15 0 -227 89 -238 100 -6 6
-18 10 -28 10 -17 0 -88 65 -88 81 0 26 106 5 145 -29z m84 4 c9 -11 6 -12
-14 -8 -14 2 -22 8 -19 13 8 13 20 11 33 -5z m738 -2 c-3 -3 -12 -4 -19 -1 -8
3 -5 6 6 6 11 1 17 -2 13 -5z m-1867 -50 c0 -2 -7 -4 -15 -4 -8 0 -15 4 -15
10 0 5 7 7 15 4 8 -4 15 -8 15 -10z m444 4 c-3 -4 0 -8 7 -8 8 0 7 -5 -2 -17
-13 -15 -10 -16 29 -9 37 5 48 3 73 -18 l29 -24 -30 -7 c-17 -4 -30 -13 -30
-21 0 -18 8 -18 44 1 25 14 34 14 70 1 23 -7 66 -19 96 -26 76 -17 94 -29 34
-23 -27 3 -50 10 -52 14 -6 15 -21 10 -60 -16 -38 -26 -62 -32 -62 -16 0 5 13
12 29 16 16 3 32 12 35 20 4 10 -7 13 -45 12 -39 -2 -52 -7 -66 -26 -9 -13
-12 -21 -6 -18 6 4 22 -2 34 -13 16 -13 19 -19 10 -20 -11 0 -9 -4 5 -15 25
-19 115 -19 159 -1 19 8 35 12 35 8 0 -11 -33 -29 -69 -37 -22 -5 -29 -10 -21
-15 8 -5 2 -10 -19 -15 -27 -6 -29 -8 -16 -21 8 -9 15 -23 15 -32 0 -12 -4
-10 -15 8 -8 14 -18 33 -21 43 -4 10 -12 16 -19 13 -7 -2 -21 4 -30 14 -10 11
-26 22 -36 25 -11 4 -16 11 -13 17 4 6 1 9 -7 6 -8 -3 -18 3 -24 12 -29 48
-67 101 -86 119 -12 11 -18 24 -15 29 3 6 -1 17 -9 25 -13 14 -13 16 3 19 29
6 51 4 46 -4z m834 -42 c14 5 15 4 2 -5 -14 -10 -7 -16 13 -12 5 1 6 -3 2 -9
-4 -6 -1 -17 5 -25 21 -25 3 -17 -28 13 -16 15 -39 43 -52 62 l-23 35 32 -32
c20 -21 37 -30 49 -27z m-7201 22 c-3 -8 -6 -5 -6 6 -1 11 2 17 5 13 3 -3 4
-12 1 -19z m6108 4 c-3 -3 -11 0 -18 7 -9 10 -8 11 6 5 10 -3 15 -9 12 -12z
m-72 -3 c-24 -10 -75 -10 -90 -1 -6 4 16 7 49 7 34 1 51 -2 41 -6z m114 -5
c-3 -3 -12 -4 -19 -1 -8 3 -5 6 6 6 11 1 17 -2 13 -5z m-742 -14 c3 -5 2 -10
-4 -10 -5 0 -13 5 -16 10 -3 6 -2 10 4 10 5 0 13 -4 16 -10z m-5408 -22 c-3
-8 -6 -5 -6 6 -1 11 2 17 5 13 3 -3 4 -12 1 -19z m5786 15 c-7 -2 -19 -2 -25
0 -7 3 -2 5 12 5 14 0 19 -2 13 -5z m2252 -3 c3 -5 1 -10 -4 -10 -6 0 -11 5
-11 10 0 6 2 10 4 10 3 0 8 -4 11 -10z m-2208 -6 c-3 -3 -12 -4 -19 -1 -8 3
-5 6 6 6 11 1 17 -2 13 -5z m-5673 -36 c-8 -46 -14 -62 -20 -55 -6 5 14 87 21
87 3 0 2 -15 -1 -32z m5351 1 c28 -10 68 -19 90 -20 40 -1 40 -1 10 -10 -33
-10 -94 7 -155 42 -19 11 -26 17 -15 13 11 -4 43 -15 70 -25z m165 -13 c0 -2
-7 -7 -16 -10 -8 -3 -12 -2 -9 4 6 10 25 14 25 6z m-5663 -83 c-3 -10 -5 -4
-5 12 0 17 2 24 5 18 2 -7 2 -21 0 -30z m6838 7 c12 -4 -8 -7 -46 -7 -48 1
-66 4 -62 13 4 12 67 9 108 -6z m313 -1 c-10 -7 -9 -9 5 -9 9 0 17 -6 17 -13
0 -7 15 -30 32 -52 20 -24 26 -36 16 -32 -12 4 -15 2 -12 -7 9 -24 -204 -85
-316 -91 -52 -3 -107 -8 -123 -10 -24 -4 -27 -2 -23 20 5 27 0 32 -45 45 -21
6 -27 5 -23 -2 5 -8 1 -9 -10 -5 -10 4 -27 7 -39 8 -40 2 22 17 74 18 25 1 54
8 65 16 22 17 38 20 29 5 -3 -5 1 -10 9 -10 9 0 16 8 16 19 0 11 13 34 30 52
16 18 27 35 24 38 -7 7 256 28 274 22 11 -3 11 -5 0 -12z m-7031 -51 c-3 -7
-5 -2 -5 12 0 14 2 19 5 13 2 -7 2 -19 0 -25z m6043 -5 c0 -7 -39 17 -46 28
-3 6 5 3 20 -6 14 -10 26 -19 26 -22z m-184 -100 c39 -60 41 -68 14 -53 -10 6
-17 17 -14 24 3 8 -3 17 -15 21 -11 3 -18 12 -15 19 3 7 -2 16 -11 20 -9 3
-13 11 -9 18 5 7 2 9 -7 6 -10 -4 -15 1 -15 13 0 17 1 17 20 1 10 -9 34 -40
52 -69z m324 62 c14 -16 10 -18 -14 -9 -9 3 -16 10 -16 15 0 14 16 11 30 -6z
m-6083 -71 c12 -26 12 -26 -7 -9 -20 18 -26 35 -12 35 4 0 12 -12 19 -26z
m6423 -4 c8 -5 11 -10 5 -10 -5 0 -17 5 -25 10 -8 5 -10 10 -5 10 6 0 17 -5
25 -10z m-680 -10 c0 -5 -2 -10 -4 -10 -3 0 -8 5 -11 10 -3 6 -1 10 4 10 6 0
11 -4 11 -10z m-305 -130 c3 -5 2 -10 -4 -10 -5 0 -13 5 -16 10 -3 6 -2 10 4
10 5 0 13 -4 16 -10z m-4885 -240 c18 -12 2 -12 -25 0 -13 6 -15 9 -5 9 8 0
22 -4 30 -9z m343 -347 c17 -19 18 -23 4 -23 -16 0 -68 96 -66 122 0 7 10 -7
21 -32 11 -25 30 -55 41 -67z m17 -113 c7 -14 20 -34 29 -45 15 -19 15 -19 -2
-5 -26 20 -69 108 -60 123 4 7 9 1 13 -18 4 -17 12 -41 20 -55z m-819 -76 c10
-13 10 -17 -2 -25 -8 -5 -23 -9 -34 -9 -15 0 -17 2 -6 9 9 6 10 11 2 15 -14 9
-5 26 13 26 8 0 19 -7 27 -16z m-270 -10 c10 -13 10 -17 -2 -25 -19 -12 -42
-11 -34 1 3 6 1 10 -6 10 -8 0 -8 4 1 15 16 19 24 19 41 -1z m840 -41 c13 -16
12 -17 -3 -4 -10 7 -18 15 -18 17 0 8 8 3 21 -13z m-718 -23 c15 -18 15 -21 2
-26 -8 -3 -13 -10 -10 -14 3 -5 -4 -6 -15 -3 -16 4 -18 8 -9 19 9 11 8 14 -5
14 -16 0 -21 12 -9 23 12 12 28 7 46 -13z m390 13 c-7 -2 -19 -2 -25 0 -7 3
-2 5 12 5 14 0 19 -2 13 -5z m-146 -22 c3 -13 11 -18 21 -14 13 3 13 1 -2 -11
-11 -9 -31 -15 -45 -15 -24 2 -24 2 -3 6 28 6 29 19 1 26 -12 3 -18 10 -14 16
10 18 36 12 42 -8z m241 -49 c2 -7 -2 -10 -12 -6 -9 3 -16 11 -16 16 0 13 23
5 28 -10z m-392 -17 c4 -8 13 -15 22 -15 13 0 13 -3 -2 -19 -10 -10 -27 -21
-39 -24 l-22 -6 23 19 c27 22 28 30 3 30 -21 0 -34 13 -24 24 11 11 34 6 39
-9z m-236 -10 c7 -8 17 -12 24 -8 6 4 5 -1 -3 -11 -8 -9 -24 -22 -35 -28 l-21
-11 20 23 c11 13 15 20 8 17 -6 -4 -18 -4 -27 -1 -13 5 -14 9 -5 20 15 18 24
18 39 -1z m478 -18 c4 -19 -6 -21 -27 -8 -16 10 -5 34 12 28 7 -2 13 -11 15
-20z m162 13 c-8 -5 -24 -9 -35 -9 l-20 0 20 9 c11 5 27 9 35 9 13 1 13 0 0
-9z m2235 0 c3 -5 1 -10 -4 -10 -6 0 -11 5 -11 10 0 6 2 10 4 10 3 0 8 -4 11
-10z m-1820 -19 c0 -8 -4 -16 -10 -18 -16 -5 -38 14 -30 26 9 16 40 9 40 -8z
m5530 -3 c4 -3 2 -9 -3 -12 -5 -3 -15 1 -21 8 -10 11 -9 14 3 12 9 -1 18 -5
21 -8z m2256 -21 c-10 -9 -11 -8 -5 6 3 10 9 15 12 12 3 -3 0 -11 -7 -18z
m-8315 1 c4 -7 4 -10 -1 -6 -4 4 -17 1 -29 -7 -11 -8 -32 -15 -46 -15 -22 0
-20 3 15 19 49 24 52 24 61 9z m188 -23 c3 -10 -1 -15 -14 -15 -20 0 -33 13
-23 24 11 11 31 6 37 -9z m356 5 c0 -13 -40 -13 -60 0 -11 7 -5 10 23 10 20 0
37 -4 37 -10z m-494 -15 c-7 -18 5 -20 23 -2 11 10 11 8 2 -11 -9 -17 -16 -20
-25 -13 -7 6 -23 15 -37 21 l-24 10 28 -3 c15 -3 27 0 27 4 0 5 3 9 6 9 3 0 4
-7 0 -15z m8204 -70 c-28 -42 -54 -74 -57 -72 -2 3 19 40 47 82 28 42 54 74
57 72 2 -3 -19 -40 -47 -82z m-8672 58 c2 -8 -6 -13 -22 -13 -25 0 -33 10 -19
24 10 10 36 3 41 -11z m220 5 c17 -17 15 -25 -8 -23 -25 2 -34 11 -25 24 8 14
18 14 33 -1z m-188 -8 c0 -13 -37 -50 -51 -50 -6 0 2 14 18 30 31 33 33 34 33
20z m264 -23 c4 4 4 -1 0 -11 -4 -10 -10 -13 -13 -8 -6 10 -51 -2 -51 -14 0
-3 7 -4 15 0 8 3 15 2 15 -3 0 -5 -9 -11 -20 -14 -13 -3 -18 -1 -13 6 4 6 0 8
-10 4 -9 -3 -19 -2 -22 3 -3 5 4 11 15 15 11 4 28 18 37 32 16 25 16 25 28 4
6 -12 14 -18 19 -14z m46 -1 c0 -8 -6 -16 -12 -19 -8 -3 -3 -12 15 -26 15 -13
25 -26 22 -31 -7 -11 84 17 101 31 8 6 14 20 14 30 0 26 17 33 50 19 20 -8 38
-9 64 -2 33 10 52 0 24 -11 -7 -3 -3 -6 10 -6 29 -1 29 -21 -1 -21 -30 0 -67
-27 -67 -49 0 -30 35 -54 72 -49 18 3 40 8 49 12 11 5 18 1 22 -11 2 -10 8
-26 12 -35 6 -15 2 -16 -28 -11 -48 7 -77 -10 -77 -47 0 -43 37 -66 84 -50 19
6 37 16 39 23 6 18 10 11 44 -97 25 -75 30 -103 22 -118 -8 -14 -6 -26 6 -44
8 -13 20 -24 25 -24 6 0 10 -9 10 -20 0 -11 -7 -20 -15 -20 -8 0 -23 -9 -32
-19 -12 -15 -21 -17 -40 -10 -37 14 -41 10 -8 -9 18 -10 31 -26 33 -40 2 -22
1 -22 -23 7 -14 16 -35 33 -46 36 -19 6 -18 9 15 33 20 14 36 28 37 31 0 3 2
14 4 24 5 25 -29 57 -61 57 -14 0 -38 -7 -54 -16 -25 -15 -27 -20 -19 -55 5
-20 7 -50 4 -66 -2 -15 -5 -37 -7 -48 -2 -11 -7 -23 -12 -26 -5 -4 1 -12 13
-18 12 -7 19 -17 15 -23 -5 -8 -1 -9 10 -5 11 5 15 3 10 -5 -5 -7 0 -9 14 -6
12 4 22 2 22 -3 0 -5 -15 -9 -34 -9 -41 0 -66 -22 -66 -58 0 -32 36 -73 59
-65 13 5 13 3 -3 -15 l-19 -22 -23 25 c-13 14 -28 25 -34 25 -6 0 -23 11 -38
25 -15 14 -32 25 -38 25 -6 0 -17 6 -23 14 -10 11 -8 16 9 21 12 4 27 2 35 -5
9 -8 19 -8 32 -1 10 5 26 12 36 15 14 5 18 14 15 43 -3 32 -9 41 -38 55 -30
16 -33 23 -7 19 4 0 7 3 7 9 0 5 11 10 25 10 21 0 25 5 25 30 0 39 -27 80 -51
80 -11 0 -19 5 -19 10 0 6 8 10 18 10 24 0 47 62 33 88 -19 35 -66 42 -107 16
-14 -10 -23 -23 -20 -30 3 -8 0 -11 -10 -7 -18 7 -18 -6 0 -21 15 -12 38 -96
26 -96 -4 0 -11 16 -14 35 -8 38 -37 64 -76 66 -17 1 -19 3 -7 6 9 2 17 10 17
18 0 7 7 15 15 19 20 7 19 60 -1 77 -21 17 -114 20 -107 3 2 -7 -1 -15 -6 -19
-6 -3 -9 -11 -6 -16 9 -13 -9 -11 -24 4 -10 10 -11 9 -6 -5 4 -11 2 -18 -4
-18 -6 0 -11 17 -12 38 0 31 -16 91 -18 70 -1 -4 -13 -3 -27 2 -17 7 -32 7
-44 0 -16 -8 -18 -8 -14 5 3 8 10 13 14 10 8 -5 14 13 25 77 4 22 2 26 -10 22
-10 -4 -15 0 -15 10 0 9 6 16 14 16 20 0 39 -27 30 -42 -5 -8 -1 -8 11 2 17
14 18 13 12 -2 -7 -20 73 34 86 58 13 23 -2 51 -30 59 l-27 6 25 12 c13 7 25
18 25 25 2 20 4 22 14 22 6 0 10 -6 10 -14z m625 -72 c14 -3 35 -4 48 -2 21 4
61 -25 50 -36 -3 -3 8 -13 25 -23 17 -9 37 -30 46 -44 20 -35 73 -53 109 -40
22 9 28 7 37 -9 9 -16 8 -19 -7 -14 -11 3 -8 0 5 -8 12 -8 20 -17 16 -21 -19
-18 -22 -191 -5 -222 3 -5 6 -13 7 -17 1 -5 2 -9 3 -10 2 -2 5 -14 7 -28 2
-13 9 -27 16 -31 7 -4 3 -11 -11 -18 -27 -15 -28 -62 -1 -86 12 -11 37 -19 58
-19 26 -1 46 -9 67 -29 l30 -28 -23 -17 c-13 -10 -25 -33 -28 -54 -6 -34 -4
-39 27 -57 42 -26 42 -26 76 3 26 22 27 27 16 55 -6 17 -10 31 -8 31 2 0 20
-10 40 -21 26 -15 33 -25 26 -32 -6 -6 -11 -28 -11 -48 0 -28 6 -42 22 -53 28
-20 72 -20 88 -1 7 8 17 12 24 8 6 -3 6 0 -1 8 -7 7 -13 20 -13 28 0 11 3 11
13 -4 9 -11 19 -15 27 -10 10 6 11 4 5 -11 -4 -10 -10 -32 -13 -47 -4 -25 -5
-26 -17 -10 -7 10 -11 22 -8 28 4 6 2 6 -3 2 -15 -14 -12 -57 4 -57 10 0 13
-7 9 -20 -4 -17 -2 -20 14 -15 10 4 19 2 19 -4 0 -5 -15 -11 -32 -13 -26 -2
-36 -10 -48 -35 -8 -18 -21 -33 -27 -33 -7 0 -12 -3 -12 -7 3 -17 -1 -33 -8
-32 -23 4 -53 -2 -53 -10 0 -10 19 -9 38 2 7 5 12 4 12 -2 0 -19 16 -12 26 12
6 12 9 17 8 11 -1 -7 13 -20 31 -30 19 -10 31 -22 28 -27 -3 -5 0 -13 7 -17 8
-5 5 -9 -9 -13 -18 -4 -20 -2 -15 19 4 15 2 24 -5 24 -6 0 -11 -5 -11 -11 0
-5 -5 -7 -11 -3 -8 4 -7 9 2 15 7 4 -7 5 -31 2 -30 -4 -51 -14 -63 -30 -10
-13 -22 -21 -27 -18 -4 3 -6 -3 -3 -13 5 -20 -20 -47 -35 -38 -15 9 -1 55 19
61 10 4 16 12 13 20 -3 8 -1 22 4 32 8 13 4 22 -16 40 -52 45 -89 39 -112 -18
-11 -26 -11 -35 3 -59 15 -24 15 -29 2 -34 -8 -3 -17 -1 -20 4 -12 20 -52 9
-86 -23 -19 -18 -34 -38 -32 -44 2 -6 -7 -9 -22 -8 -14 2 -27 -1 -31 -6 -3 -5
13 -9 36 -9 25 0 39 -4 35 -10 -3 -6 -17 -7 -31 -4 -15 4 -34 0 -49 -10 -34
-22 -45 -20 -17 4 13 10 22 21 20 24 -7 11 44 56 64 57 13 0 17 3 9 6 -11 5
-11 7 0 14 10 6 11 9 2 9 -7 0 -13 9 -13 21 0 51 -68 72 -107 33 -20 -20 -28
-23 -37 -14 -8 9 -8 14 3 17 11 5 11 7 0 14 -12 8 -11 11 1 20 13 9 13 10 -2
6 -9 -3 -18 -1 -20 5 -6 16 -89 26 -116 14 -19 -8 -28 -5 -55 22 l-32 32 29 0
c19 0 29 -6 33 -19 3 -12 11 -17 19 -14 8 3 11 9 8 14 -3 5 4 9 15 9 38 0 55
65 24 92 -30 25 -63 28 -83 8 -19 -19 -38 -10 -24 12 4 7 3 8 -4 4 -7 -4 -12
-3 -12 3 0 12 37 34 48 27 4 -2 7 9 7 25 0 20 -4 28 -13 24 -9 -3 -8 2 3 17 8
13 15 32 15 45 0 12 8 24 19 28 38 12 35 84 -4 99 -8 3 -15 13 -15 23 0 13 8
18 31 19 35 1 49 17 49 56 0 21 -8 31 -30 43 -17 9 -40 13 -50 10 -16 -5 -20
-2 -20 17 0 13 -12 79 -26 148 -14 69 -29 148 -34 175 -5 28 -14 70 -21 95 -6
25 -13 59 -14 75 -2 17 -4 30 -5 30 -1 0 -3 8 -5 19 -2 13 9 5 36 -23 22 -22
51 -44 64 -47z m-517 59 c2 -8 -5 -13 -17 -13 -21 0 -35 13 -24 24 10 10 36 3
41 -11z m549 -8 c3 -9 3 -18 1 -21 -9 -9 -38 8 -38 22 0 19 29 18 37 -1z m181
-13 c3 -9 -3 -13 -19 -10 -12 1 -24 9 -27 16 -3 9 3 13 19 10 12 -1 24 -9 27
-16z m-14 -43 c13 0 16 -3 7 -6 -16 -6 -81 25 -81 39 0 5 12 0 26 -11 15 -12
36 -21 48 -22z m-1079 10 c10 -15 -1 -23 -20 -15 -9 3 -13 10 -10 16 8 13 22
13 30 -1z m55 -31 c0 -5 -12 -13 -26 -18 -14 -6 -22 -14 -19 -20 3 -6 -1 -7
-10 -4 -14 6 -14 9 4 28 12 12 21 31 21 42 1 19 1 19 15 0 8 -11 15 -24 15
-28z m528 14 c3 -9 -3 -13 -19 -10 -12 1 -24 9 -27 16 -3 9 3 13 19 10 12 -1
24 -9 27 -16z m-758 -1 c0 -5 -9 -19 -20 -32 l-21 -24 16 33 c15 31 25 41 25
23z m290 5 c0 -3 -4 -8 -10 -11 -5 -3 -10 -1 -10 4 0 6 5 11 10 11 6 0 10 -2
10 -4z m100 -12 c0 -9 -7 -14 -17 -12 -25 5 -28 28 -4 28 12 0 21 -6 21 -16z
m-143 -46 c-3 -8 -6 -5 -6 6 -1 11 2 17 5 13 3 -3 4 -12 1 -19z m1052 -22 c7
-9 8 -17 2 -20 -14 -9 -41 4 -41 20 0 18 24 18 39 0z m-1204 -34 c-3 -17 -14
-33 -23 -37 -14 -5 -15 -4 -4 6 6 7 12 23 12 34 0 22 10 39 18 31 2 -3 1 -18
-3 -34z m-37 13 c-2 -5 -11 -10 -20 -10 -19 -2 -23 7 -11 19 10 10 35 3 31 -9z
m197 4 c10 -15 -1 -23 -20 -15 -9 3 -13 10 -10 16 8 13 22 13 30 -1z m1220
-19 c0 -8 -10 -16 -22 -18 -18 -3 -23 2 -23 18 0 16 5 21 23 18 12 -2 22 -10
22 -18z m-1325 0 c0 -5 -2 -10 -4 -10 -3 0 -8 5 -11 10 -3 6 -1 10 4 10 6 0
11 -4 11 -10z m1256 -19 c-12 -19 -24 -12 -19 10 4 13 9 17 15 11 6 -6 7 -15
4 -21z m-606 0 c0 -18 -17 -20 -36 -6 -18 14 -18 14 9 15 15 0 27 -4 27 -9z
m-621 -81 c0 -8 -6 0 -14 19 -8 18 -15 36 -15 40 1 13 29 -45 29 -59z m41 24
c0 -8 -19 -13 -24 -6 -3 5 1 9 9 9 8 0 15 -2 15 -3z m-75 -14 c3 -5 -1 -10 -9
-10 -8 0 -18 5 -21 10 -3 6 1 10 9 10 8 0 18 -4 21 -10z m8530 -8 c-3 -3 -11
0 -18 7 -9 10 -8 11 6 5 10 -3 15 -9 12 -12z m-8688 -29 c-3 -10 -5 -4 -5 12
0 17 2 24 5 18 2 -7 2 -21 0 -30z m338 17 c3 -5 -1 -10 -9 -10 -8 0 -18 5 -21
10 -3 6 1 10 9 10 8 0 18 -4 21 -10z m8291 -37 c-11 -11 -17 4 -9 23 7 18 8
18 11 1 2 -10 1 -21 -2 -24z m-8455 4 c-10 -9 -11 -8 -5 6 3 10 9 15 12 12 3
-3 0 -11 -7 -18z m339 -7 c0 -5 -7 -10 -15 -10 -8 0 -15 5 -15 10 0 6 7 10 15
10 8 0 15 -4 15 -10z m-163 -32 c-3 -8 -6 -5 -6 6 -1 11 2 17 5 13 3 -3 4 -12
1 -19z m-91 -34 c3 -22 2 -25 -6 -14 -10 15 -14 58 -5 48 3 -3 8 -18 11 -34z
m8334 26 c0 -5 -5 -10 -11 -10 -5 0 -7 5 -4 10 3 6 8 10 11 10 2 0 4 -4 4 -10z
m-8500 -20 c0 -11 -2 -20 -4 -20 -2 0 -6 9 -9 20 -3 11 -1 20 4 20 5 0 9 -9 9
-20z m305 12 c10 -7 35 -48 35 -57 0 -3 -4 -5 -10 -5 -5 0 -10 7 -10 15 0 8
-9 20 -20 27 -20 13 -27 28 -12 28 4 0 12 -4 17 -8z m-340 -12 c3 -5 -1 -10
-9 -10 -8 0 -18 5 -21 10 -3 6 1 10 9 10 8 0 18 -4 21 -10z m165 0 c12 -8 11
-10 -7 -10 -13 0 -23 5 -23 10 0 13 11 13 30 0z m460 -4 c0 -11 -19 -15 -25
-6 -3 5 1 10 9 10 9 0 16 -2 16 -4z m-300 -26 c0 -5 -4 -10 -9 -10 -6 0 -13 5
-16 10 -3 6 1 10 9 10 9 0 16 -4 16 -10z m157 -46 c-3 -3 -12 -4 -19 -1 -8 3
-5 6 6 6 11 1 17 -2 13 -5z m71 -19 c-3 -3 -9 2 -12 12 -6 14 -5 15 5 6 7 -7
10 -15 7 -18z m32 -6 c0 -6 -4 -7 -10 -4 -5 3 -10 11 -10 16 0 6 5 7 10 4 6
-3 10 -11 10 -16z m185 10 c11 -17 -1 -21 -15 -4 -8 9 -8 15 -2 15 6 0 14 -5
17 -11z m-705 -31 c0 -13 -23 -5 -28 10 -2 7 2 10 12 6 9 -3 16 -11 16 -16z
m-149 -3 c-1 -15 -24 -12 -29 3 -3 9 2 13 12 10 10 -1 17 -7 17 -13z m39 -6
c0 -6 -4 -7 -10 -4 -5 3 -10 11 -10 16 0 6 5 7 10 4 6 -3 10 -11 10 -16z m300
-4 c14 -19 14 -19 -2 -6 -10 7 -18 18 -18 24 0 6 1 8 3 6 1 -2 9 -13 17 -24z
m8271 4 c9 -5 24 -25 34 -44 14 -31 15 -41 4 -67 -16 -40 -47 -68 -76 -68 -12
0 -38 16 -58 35 -36 36 -48 28 -19 -13 21 -30 22 -208 1 -228 -21 -22 -117 43
-117 79 0 12 10 31 23 42 27 23 44 70 23 62 -7 -3 -19 3 -27 14 -7 10 -22 19
-32 19 -14 0 -17 5 -13 16 5 12 2 15 -13 11 -14 -3 -17 0 -14 14 4 14 1 18
-10 13 -24 -9 -14 29 10 41 12 6 29 17 38 25 10 8 45 26 79 40 61 26 127 30
167 9z m-8316 1 c3 -5 -1 -10 -9 -10 -9 0 -16 5 -16 10 0 6 4 10 9 10 6 0 13
-4 16 -10z m171 -15 c15 -15 22 -30 17 -37 -5 -9 -9 -5 -13 10 -3 13 -16 30
-30 37 -14 8 -19 14 -12 15 7 0 24 -11 38 -25z m-28 -14 c11 -7 11 -9 -1 -14
-16 -6 -27 0 -27 15 0 10 11 10 28 -1z m142 -5 c0 -9 7 -13 19 -11 15 3 20 -4
26 -32 4 -21 2 -40 -4 -46 -8 -8 -11 -4 -11 14 0 15 -11 35 -25 47 -26 22 -33
42 -15 42 6 0 10 -6 10 -14z m213 -21 c-3 -9 -8 -14 -10 -11 -3 3 -2 9 2 15 9
16 15 13 8 -4z m7534 9 c-3 -3 -12 -4 -19 -1 -8 3 -5 6 6 6 11 1 17 -2 13 -5z
m-7167 -19 c0 -9 -6 -12 -15 -9 -8 4 -15 10 -15 15 0 5 7 9 15 9 8 0 15 -7 15
-15z m-175 -5 c3 -5 1 -10 -4 -10 -6 0 -11 5 -11 10 0 6 2 10 4 10 3 0 8 -4
11 -10z m-418 -26 c-9 -9 -28 6 -21 18 4 6 10 6 17 -1 6 -6 8 -13 4 -17z m923
5 c0 -5 -7 -9 -15 -9 -15 0 -20 12 -9 23 8 8 24 -1 24 -14z m-837 -24 c-7 -21
-13 -19 -13 6 0 11 4 18 10 14 5 -3 7 -12 3 -20z m-209 0 c-4 -8 -11 -12 -16
-9 -6 4 -5 10 3 15 19 12 19 11 13 -6z m41 -42 c7 3 16 2 21 -2 5 -4 29 -14
54 -21 58 -18 77 -41 45 -54 -9 -3 -33 5 -54 19 -21 13 -42 21 -45 17 -4 -3
-4 1 -1 10 4 10 1 16 -7 15 -42 -1 -67 5 -72 19 -3 8 -2 13 2 10 4 -2 14 -1
22 4 11 7 16 5 18 -6 2 -9 10 -13 17 -11z m7670 1 c27 3 61 7 75 8 19 2 28 -4
39 -27 8 -16 18 -31 23 -33 4 -2 5 -14 2 -26 -3 -14 1 -27 10 -35 8 -7 20 -29
27 -49 6 -20 16 -41 20 -46 5 -6 20 -25 34 -43 15 -18 21 -34 15 -38 -11 -7
-50 11 -50 24 0 4 -18 36 -40 70 -22 34 -40 68 -40 76 0 19 -4 19 -40 0 -17
-9 -55 -14 -99 -14 -70 1 -71 1 -71 27 0 15 -7 36 -15 46 -8 11 -15 32 -15 47
0 27 1 27 37 17 21 -6 60 -7 88 -4z m-7545 -8 c0 -9 -7 -12 -20 -9 -11 3 -17
9 -14 14 8 14 34 10 34 -5z m90 4 c0 -5 -7 -10 -16 -10 -8 0 -12 5 -9 10 3 6
10 10 16 10 5 0 9 -4 9 -10z m303 3 c4 -3 2 -12 -4 -20 -9 -9 -8 -13 0 -13 6
0 11 -8 11 -17 0 -14 -3 -14 -22 4 -13 11 -30 23 -38 26 -10 3 -7 6 8 6 13 1
20 5 17 11 -7 11 18 14 28 3z m-143 -33 c-13 -8 -12 -10 5 -11 16 -1 17 -2 3
-6 -9 -2 -19 -12 -22 -21 -2 -9 -3 -3 -1 13 4 38 3 35 18 35 8 0 7 -4 -3 -10z
m-565 -54 c177 -49 347 -166 451 -313 83 -115 146 -284 143 -384 -1 -43 -2
-42 -10 16 -43 296 -262 560 -538 649 -111 36 -124 38 -256 46 l-120 8 135 -3
c87 -2 157 -8 195 -19z m224 -7 c65 -37 154 -104 195 -148 16 -16 34 -28 39
-24 6 3 7 1 3 -5 -4 -7 -2 -12 4 -12 20 0 113 -127 104 -141 -3 -5 9 -35 26
-68 16 -33 30 -66 30 -73 -1 -7 -14 14 -29 48 -85 183 -221 329 -396 426 -27
15 -46 28 -41 28 5 0 34 -14 65 -31z m1106 11 c3 -6 -1 -7 -9 -4 -18 7 -21 14
-7 14 6 0 13 -4 16 -10z m-815 -10 c0 -5 -4 -10 -10 -10 -5 0 -10 5 -10 10 0
6 5 10 10 10 6 0 10 -4 10 -10z m65 -9 c3 -5 1 -12 -5 -16 -5 -3 -10 1 -10 9
0 18 6 21 15 7z m735 -21 c8 -5 11 -12 8 -16 -10 -9 -38 3 -38 16 0 12 10 13
30 0z m370 -9 c0 -14 -18 -23 -30 -16 -6 4 -8 11 -5 16 8 12 35 12 35 0z
m-1757 -28 c-7 -2 -21 -2 -30 0 -10 3 -4 5 12 5 17 0 24 -2 18 -5z m753 -89
c21 -30 35 -56 32 -60 -6 -5 -108 130 -108 142 0 14 40 -30 76 -82z m874 66
c0 -5 -4 -10 -10 -10 -5 0 -10 5 -10 10 0 6 5 10 10 10 6 0 10 -4 10 -10z
m-65 -10 c4 -6 -5 -10 -19 -10 -14 0 -26 5 -26 10 0 6 9 10 19 10 11 0 23 -4
26 -10z m-765 -14 c0 -2 -7 -7 -16 -10 -8 -3 -12 -2 -9 4 6 10 25 14 25 6z
m-438 -125 c12 -30 8 -30 -29 -5 -49 32 -113 102 -99 107 13 4 118 -80 128
-102z m1348 48 c0 -5 -9 -9 -20 -9 -22 0 -27 16 -7 23 15 5 27 -1 27 -14z
m-1655 -19 c-4 -12 1 -20 17 -25 13 -4 26 -7 30 -6 4 0 16 -15 28 -34 12 -19
26 -35 32 -35 6 0 6 6 -2 15 -7 9 -8 15 -2 15 19 0 54 -72 47 -98 -3 -13 -1
-30 6 -38 9 -12 9 -13 -2 -9 -10 4 -19 -6 -27 -28 -14 -39 -16 -60 -4 -53 5 3
9 0 10 -7 0 -7 7 -30 15 -51 9 -24 12 -48 7 -60 -4 -12 -13 -41 -20 -66 -7
-25 -16 -53 -22 -64 -9 -16 -7 -18 16 -14 14 3 23 1 20 -3 -10 -16 -43 -9 -54
11 -8 15 -8 20 1 18 18 -4 35 71 20 94 -14 23 -14 29 2 26 6 -2 13 9 15 24 3
29 -31 73 -48 63 -6 -4 -7 1 -3 11 4 10 2 15 -4 11 -6 -4 -8 -38 -6 -84 3 -64
2 -74 -8 -58 -7 11 -13 22 -15 24 -2 2 -15 -6 -30 -18 -19 -15 -31 -18 -44
-11 -14 7 -19 5 -23 -10 -14 -53 -38 17 -36 104 0 26 2 28 9 11 5 -11 11 -28
14 -37 3 -11 11 -15 21 -11 13 4 14 8 4 14 -8 4 -10 11 -6 15 12 13 37 -18 37
-47 l0 -28 34 20 c34 20 39 44 14 76 -6 7 -5 19 1 32 8 13 8 22 1 26 -15 9 -1
27 16 21 17 -6 17 -4 5 26 -5 13 -12 32 -16 43 l-7 20 -9 -20 c-8 -18 -8 -17
-6 5 4 42 31 30 41 -17 9 -44 26 -59 26 -23 0 11 4 20 10 20 5 0 14 9 20 20 9
16 8 20 -5 20 -10 0 -13 -5 -9 -12 4 -7 -8 2 -27 20 -18 18 -34 41 -34 50 0 9
-13 23 -30 31 -16 7 -42 25 -58 39 l-27 26 27 22 c31 24 47 22 38 -6z m84 -17
l23 -48 -22 20 c-12 11 -31 32 -42 48 -19 26 -19 27 -1 27 13 0 27 -16 42 -47z
m801 2 c10 -12 9 -16 -5 -21 -19 -8 -40 9 -31 25 10 15 21 14 36 -4z m851 -61
c-9 -28 -9 -29 -10 -3 -1 14 2 29 6 32 11 12 13 2 4 -29z m53 1 c4 -11 -1 -15
-19 -15 -24 0 -32 10 -18 23 11 12 31 8 37 -8z m-1809 -15 c-4 -6 -10 -8 -15
-5 -5 3 -20 1 -33 -4 -19 -8 -27 -6 -31 5 -4 11 5 14 40 14 28 0 43 -4 39 -10z
m53 -25 c-3 -3 -9 2 -12 12 -6 14 -5 15 5 6 7 -7 10 -15 7 -18z m1549 -11 c-3
-4 -14 -3 -24 0 -15 6 -15 8 -3 16 16 10 39 -4 27 -16z m-1277 8 c-1 -28 -70
-56 -84 -33 -4 6 0 11 8 11 9 0 16 6 16 13 0 6 14 13 30 14 17 1 30 -1 30 -5z
m-366 -25 c-3 -8 10 -21 31 -32 43 -24 45 -37 5 -28 -23 4 -30 2 -30 -10 0
-26 -23 -37 -45 -21 -20 15 -20 15 -1 30 11 8 26 14 34 14 9 0 6 6 -8 18 -13
11 -20 24 -16 30 10 16 37 15 30 -1z m861 3 c3 -5 -3 -10 -15 -10 -12 0 -18 5
-15 10 3 6 10 10 15 10 5 0 12 -4 15 -10z m-1009 -37 c-11 -11 -17 4 -9 23 7
18 8 18 11 1 2 -10 1 -21 -2 -24z m926 -14 c5 -16 15 -29 21 -29 7 0 4 -6 -5
-13 -15 -12 -15 -15 7 -31 14 -11 21 -23 17 -30 -3 -6 -7 -20 -7 -30 0 -11 -6
-21 -13 -24 -11 -3 -12 0 -3 16 6 11 8 22 3 24 -4 2 -18 26 -31 53 -13 28 -27
58 -32 67 -5 10 -9 25 -9 33 0 26 40 -2 52 -36z m173 41 c-3 -5 -12 -10 -18
-10 -7 0 -6 4 3 10 19 12 23 12 15 0z m454 -9 c9 -6 10 -11 2 -15 -13 -8 -31
1 -31 15 0 11 11 11 29 0z m-1604 -11 c3 -5 1 -10 -4 -10 -6 0 -11 5 -11 10 0
6 2 10 4 10 3 0 8 -4 11 -10z m625 -21 c0 -6 9 -8 20 -4 25 8 28 -16 4 -35
-13 -11 -16 -10 -20 8 -4 12 -12 18 -19 16 -7 -3 -16 0 -21 7 -5 9 -2 10 11 5
18 -6 18 -6 -1 15 l-19 22 23 -12 c12 -6 22 -16 22 -22z m498 13 c2 -7 -2 -10
-12 -6 -9 3 -16 11 -16 16 0 13 23 5 28 -10z m92 8 c0 -5 -9 -10 -20 -10 -11
0 -20 5 -20 10 0 6 9 10 20 10 11 0 20 -4 20 -10z m709 -46 c-10 -23 -13 -25
-16 -11 -3 10 1 25 8 33 17 21 21 11 8 -22z m-1400 -30 c-6 -7 -8 -23 -4 -34
6 -18 9 -19 18 -7 17 21 54 27 68 11 6 -8 21 -11 39 -8 17 4 31 1 35 -7 6 -9
2 -11 -12 -7 -12 3 -26 2 -33 -2 -18 -11 -3 -30 17 -23 12 5 14 3 8 -8 -8 -12
-6 -12 8 0 17 13 23 6 18 -21 -2 -13 24 -9 38 5 10 10 11 9 6 -5 -5 -13 -2
-18 9 -18 22 0 20 -30 -1 -31 -11 0 -13 -3 -5 -6 15 -6 16 -25 0 -41 -8 -8
-20 -7 -46 4 -40 17 -37 19 -67 -38 -12 -23 -31 -45 -40 -47 -13 -2 -16 2 -12
12 4 10 -3 17 -24 21 -35 7 -71 37 -51 44 6 2 12 13 12 25 0 12 5 29 10 37 8
13 10 13 10 -1 0 -12 7 -15 26 -11 20 4 24 10 22 30 -2 21 -11 29 -44 38 -23
7 -47 8 -55 4 -18 -12 -39 7 -38 34 1 17 2 17 6 4 6 -23 23 -23 23 -1 0 15 1
15 13 1 6 -8 20 -18 30 -21 15 -6 16 -3 7 13 -11 21 -13 70 -3 96 6 15 7 14
15 -6 5 -14 4 -28 -3 -36z m594 29 c-3 -7 0 -13 7 -13 6 0 9 -4 6 -9 -4 -5 0
-12 6 -15 7 -3 -3 -3 -22 1 -19 3 -41 6 -47 6 -19 0 -16 18 4 33 23 16 52 14
46 -3z m247 -4 c0 -5 -7 -9 -15 -9 -8 0 -15 7 -15 15 0 9 6 12 15 9 8 -4 15
-10 15 -15z m614 6 c4 -11 -1 -15 -19 -15 -26 0 -34 15 -12 23 20 9 25 8 31
-8z m-704 -43 c0 -13 -3 -12 -15 4 -8 10 -15 14 -15 7 0 -6 10 -19 22 -27 12
-9 18 -16 13 -16 -6 0 -1 -8 10 -17 l20 -16 -20 8 c-35 14 -74 18 -92 9 -29
-13 -53 -12 -53 1 0 8 8 11 20 8 22 -6 53 14 44 28 -3 5 0 9 5 9 6 0 11 -5 11
-11 0 -5 5 -7 10 -4 6 4 8 11 4 16 -3 6 -3 17 0 26 5 12 9 13 21 3 8 -7 15
-20 15 -28z m-560 3 c7 -8 9 -15 6 -15 -4 0 -14 7 -22 15 -9 8 -11 15 -6 15 5
0 15 -7 22 -15z m300 5 c0 -5 -2 -10 -4 -10 -3 0 -8 5 -11 10 -3 6 -1 10 4 10
6 0 11 -4 11 -10z m745 0 c4 -6 -5 -10 -19 -10 -14 0 -26 5 -26 10 0 6 9 10
19 10 11 0 23 -4 26 -10z m-1747 -16 c12 -8 22 -20 22 -26 0 -7 -4 -7 -12 0
-7 5 -24 12 -37 14 -29 4 -41 28 -14 28 10 0 29 -7 41 -16z m167 -21 c3 -13 2
-23 -3 -23 -11 0 -22 24 -22 48 0 21 15 5 25 -25z m865 27 c0 -5 -2 -10 -4
-10 -3 0 -8 5 -11 10 -3 6 -1 10 4 10 6 0 11 -4 11 -10z m143 -6 c4 -1 10 -2
14 -3 4 0 2 -6 -5 -13 -8 -8 -15 -8 -27 2 -18 15 -20 35 -2 23 6 -4 15 -8 20
-9z m411 -21 c-16 -12 -17 -15 -4 -24 8 -5 26 -8 40 -7 14 1 36 -2 49 -6 21
-7 22 -10 8 -18 -11 -6 -24 -5 -38 3 -18 9 -27 7 -51 -11 -33 -24 -48 -22 -22
4 9 9 13 20 9 24 -3 4 -13 -2 -21 -12 -7 -11 -16 -17 -19 -14 -3 3 1 11 10 18
17 14 21 35 5 25 -5 -3 -10 -1 -10 4 0 6 7 11 16 11 8 0 13 4 9 9 -3 6 3 14
12 20 25 14 31 -8 7 -26z m-1471 13 c13 -10 16 -21 11 -40 -5 -21 -9 -24 -20
-16 -7 7 -11 17 -8 25 3 7 1 16 -5 20 -13 7 -15 25 -3 25 4 0 15 -7 25 -14z
m987 -7 c0 -5 -7 -9 -15 -9 -8 0 -15 7 -15 15 0 9 6 12 15 9 8 -4 15 -10 15
-15z m384 5 c23 -9 20 -24 -4 -24 -11 0 -20 7 -20 15 0 17 2 18 24 9z m344
-59 c-13 -19 -25 -30 -26 -24 -5 13 25 59 38 59 6 0 0 -16 -12 -35z m219 22
c-3 -9 2 -13 15 -13 12 1 23 -5 25 -12 3 -9 -5 -12 -26 -10 -30 2 -42 24 -24
41 10 11 16 8 10 -6z m-809 -15 c2 -7 -3 -12 -12 -12 -9 0 -16 7 -16 16 0 17
22 14 28 -4z m57 -12 c3 -5 1 -10 -4 -10 -6 0 -11 5 -11 10 0 6 2 10 4 10 3 0
8 -4 11 -10z m583 -12 c-3 -7 -11 -13 -18 -13 -7 0 -15 6 -17 13 -3 7 4 12 17
12 13 0 20 -5 18 -12z m-1798 -8 c0 -5 -4 -10 -10 -10 -5 0 -10 5 -10 10 0 6
5 10 10 10 6 0 10 -4 10 -10z m940 0 c-12 -8 -12 -10 -1 -10 8 0 12 -3 8 -6
-3 -4 -14 -3 -24 0 -15 6 -15 8 -3 16 8 6 20 10 25 10 6 0 3 -5 -5 -10z m-263
-22 c-3 -8 -6 -5 -6 6 -1 11 2 17 5 13 3 -3 4 -12 1 -19z m888 13 c3 -5 1 -12
-4 -15 -12 -8 -41 3 -41 15 0 12 37 12 45 0z m-1175 -50 c0 -32 -6 -24 -14 19
-4 25 -3 31 4 20 5 -8 10 -26 10 -39z m668 39 c10 0 12 -3 7 -9 -13 -12 -67
-2 -59 11 3 5 13 7 21 4 8 -3 22 -6 31 -6z m399 4 c-3 -3 -12 -4 -19 -1 -8 3
-5 6 6 6 11 1 17 -2 13 -5z m-1450 -17 c14 0 6 -17 -8 -17 -6 0 -18 8 -27 17
-16 16 -16 16 3 9 11 -5 25 -9 32 -9z m1287 7 c23 -9 20 -24 -4 -24 -11 0 -20
7 -20 15 0 17 2 18 24 9z m7385 -49 c0 -5 -4 -3 -9 5 -5 8 -9 22 -9 30 0 16
17 -16 18 -35z m-8634 25 c-3 -5 -12 -10 -18 -10 -7 0 -6 4 3 10 19 12 23 12
15 0z m895 0 c0 -5 -2 -10 -4 -10 -3 0 -8 5 -11 10 -3 6 -1 10 4 10 6 0 11 -4
11 -10z m264 2 c2 -4 -4 -8 -14 -8 -10 0 -16 4 -14 8 3 4 9 8 14 8 5 0 11 -4
14 -8z m-163 -17 c-1 -15 -24 -12 -29 3 -3 9 2 13 12 10 10 -1 17 -7 17 -13z
m-338 -20 c-7 -21 -13 -19 -13 6 0 11 4 18 10 14 5 -3 7 -12 3 -20z m-349 0
c-7 -17 -20 -20 -29 -6 -3 5 3 12 12 14 10 3 19 5 20 6 1 0 0 -6 -3 -14z
m1081 5 c17 -7 15 -9 -12 -9 -17 -1 -35 -5 -38 -11 -3 -5 -12 -10 -18 -10 -7
1 -1 10 12 20 26 22 27 22 56 10z m240 3 c-11 -3 -28 -12 -38 -21 -22 -20 -33
-10 -12 12 9 9 28 15 43 15 21 -1 23 -2 7 -6z m201 -9 c-4 -12 -1 -14 13 -9
23 7 39 -14 20 -26 -8 -5 -20 -2 -31 8 -14 12 -18 13 -18 3 0 -7 -3 -11 -6 -8
-6 7 13 48 22 48 4 0 3 -7 0 -16z m-1614 -26 c-8 -8 -9 -4 -5 13 4 13 8 18 11
10 2 -7 -1 -18 -6 -23z m932 19 c10 -10 2 -12 -38 -10 -66 2 -70 4 -21 13 22
4 41 8 43 9 2 0 9 -5 16 -12z m-564 -29 c0 -13 -9 -10 -33 13 l-22 21 28 -13
c15 -7 27 -16 27 -21z m1060 6 c0 -9 -7 -14 -17 -12 -25 5 -28 28 -4 28 12 0
21 -6 21 -16z m-1546 -9 c-4 -8 -11 -15 -16 -15 -6 0 -5 6 2 15 7 8 14 15 16
15 2 0 1 -7 -2 -15z m1034 2 c8 -10 6 -13 -9 -14 -19 -2 -25 8 -12 20 8 9 9 9
21 -6z m262 3 c0 -5 -9 -10 -20 -10 -11 0 -20 5 -20 10 0 6 9 10 20 10 11 0
20 -4 20 -10z m-1276 -82 c44 -49 47 -55 40 -93 -3 -22 -10 -44 -15 -49 -5 -6
-9 -19 -10 -30 0 -12 -3 -15 -6 -8 -3 7 0 35 7 61 15 63 4 84 -52 103 -70 24
-73 24 -70 6 2 -12 -6 -20 -23 -24 -20 -5 -31 0 -50 20 l-24 26 35 0 c21 0 47
9 61 20 39 30 56 25 107 -32z m2061 32 c-3 -5 -12 -10 -18 -10 -7 0 -6 4 3 10
19 12 23 12 15 0z m-1162 -7 c3 -5 -12 -8 -33 -8 -21 0 -36 3 -33 8 2 4 17 7
33 7 16 0 31 -3 33 -7z m257 -4 c0 -6 -8 -8 -20 -4 -10 3 -30 1 -42 -5 -22
-11 -22 -10 -4 4 23 18 66 21 66 5z m-870 -9 c0 -5 -9 -10 -21 -10 -11 0 -17
5 -14 10 3 6 13 10 21 10 8 0 14 -4 14 -10z m28 -25 c0 -14 -5 -25 -9 -25 -5
0 -8 13 -7 29 3 35 16 32 16 -4z m1075 28 c-12 -2 -27 -11 -33 -19 -7 -8 -17
-14 -23 -14 -5 0 -2 9 8 20 10 11 29 19 44 19 23 -2 23 -2 4 -6z m215 -28
c-12 -14 -23 -25 -25 -25 -9 0 -1 20 13 34 25 26 36 18 12 -9z m-1064 -67 c-6
-60 -9 -67 -15 -43 -3 17 -7 24 -8 16 0 -8 -4 -11 -8 -8 -3 4 -12 2 -19 -4 -9
-7 -18 -2 -33 20 -41 57 -14 85 33 35 30 -34 46 -24 46 28 0 23 3 39 6 35 3
-3 3 -39 -2 -79z m346 72 c0 -5 -7 -10 -15 -10 -8 0 -15 5 -15 10 0 6 7 10 15
10 8 0 15 -4 15 -10z m264 1 c3 -4 3 -11 0 -14 -8 -8 -34 3 -34 14 0 11 27 12
34 0z m247 -16 c-1 -15 -24 -12 -29 3 -3 9 2 13 12 10 10 -1 17 -7 17 -13z
m253 -16 c-7 -13 -31 -11 -40 2 -9 16 18 30 33 17 7 -6 10 -14 7 -19z m206 -4
c0 -17 -18 -19 -39 -6 -8 5 -11 16 -8 25 5 14 11 15 27 6 11 -6 20 -17 20 -25z
m-2080 0 c0 -14 -2 -25 -4 -25 -2 0 -6 11 -8 25 -3 14 -1 25 3 25 5 0 9 -11 9
-25z m355 -5 c22 -23 26 -33 17 -42 -15 -15 -55 19 -47 39 2 8 1 12 -4 9 -5
-3 -14 1 -21 9 -25 30 25 16 55 -15z m76 2 c-6 -11 -7 -23 -3 -27 4 -5 2 -5
-5 -1 -9 5 -10 13 -1 31 6 14 13 23 15 21 3 -2 0 -13 -6 -24z m813 -11 c3 -5
-10 -9 -28 -8 -19 0 -33 5 -30 9 7 11 51 10 58 -1z m-623 -20 c-7 -5 -12 -12
-11 -17 1 -5 -3 -10 -9 -12 -6 -2 -11 1 -11 8 0 6 -4 8 -10 5 -5 -3 -10 -4
-10 -1 0 8 54 35 60 30 2 -3 -1 -9 -9 -13z m869 -1 c12 -8 10 -10 -8 -10 -13
0 -33 -5 -45 -11 -21 -10 -21 -9 2 10 26 24 30 24 51 11z m-1500 -14 c10 -13
7 -14 -17 -10 -39 7 -54 24 -21 24 14 0 31 -7 38 -14z m350 -18 c0 -6 -7 -5
-15 2 -8 7 -15 17 -15 22 0 6 7 5 15 -2 8 -7 15 -17 15 -22z m898 14 c3 -9 -2
-13 -14 -10 -9 1 -19 9 -22 16 -3 9 2 13 14 10 9 -1 19 -9 22 -16z m260 -19
c2 -8 -5 -13 -17 -13 -12 0 -21 6 -21 16 0 18 31 15 38 -3z m220 3 c-16 -8
-32 -18 -38 -21 -15 -9 -12 2 6 19 8 9 25 16 37 16 20 0 19 -1 -5 -14z m-1593
-6 c-3 -5 -10 -10 -16 -10 -5 0 -9 5 -9 10 0 6 7 10 16 10 8 0 12 -4 9 -10z
m996 -17 c12 -16 12 -17 -1 -7 -8 6 -22 14 -30 17 -13 5 -12 6 1 6 9 1 23 -7
30 -16z m624 -3 c3 -5 -3 -10 -14 -10 -12 0 -21 5 -21 10 0 6 6 10 14 10 8 0
18 -4 21 -10z m219 -9 c21 -23 8 -34 -28 -25 -21 5 -24 9 -15 25 12 24 21 24
43 0z m-869 -2 c10 -15 -1 -23 -20 -15 -9 3 -13 10 -10 16 8 13 22 13 30 -1z
m275 -14 c0 -2 -14 -3 -31 -3 -17 1 -25 4 -18 8 10 7 49 2 49 -5z m-685 -43
c1 -23 -3 -42 -9 -42 -6 0 -5 -5 2 -12 8 -8 9 -15 1 -25 -14 -17 -49 -17 -49
0 1 14 18 95 25 115 10 28 29 4 30 -36z m62 26 c-3 -8 -6 -5 -6 6 -1 11 2 17
5 13 3 -3 4 -12 1 -19z m-223 -13 c-3 -8 -12 -11 -20 -8 -15 5 -18 16 -8 26
11 10 33 -4 28 -18z m-193 -7 c54 -12 125 -69 134 -108 4 -19 -2 -34 -24 -60
l-31 -35 -40 43 c-33 34 -44 40 -59 32 -18 -9 -31 -5 -31 12 0 4 11 8 25 8 14
0 25 2 25 5 0 2 -18 28 -40 57 -44 58 -49 74 -22 63 9 -4 38 -12 63 -17z
m1027 5 c2 -8 -5 -13 -17 -13 -12 0 -21 6 -21 16 0 18 31 15 38 -3z m262 -10
c0 -3 -9 -3 -19 0 -11 3 -30 -2 -43 -10 l-23 -15 22 20 c20 18 63 21 63 5z
m-1585 -3 c3 -5 1 -10 -4 -10 -6 0 -11 5 -11 10 0 6 2 10 4 10 3 0 8 -4 11
-10z m136 -32 c17 -31 5 -30 -26 2 -25 26 -26 28 -6 23 12 -3 26 -14 32 -25z
m1039 18 c0 -2 -13 -6 -29 -8 -17 -2 -28 -1 -25 4 5 8 54 12 54 4z m400 -11
c0 -8 -9 -15 -20 -15 -11 0 -20 7 -20 15 0 8 9 15 20 15 11 0 20 -7 20 -15z
m-402 -23 c2 -7 -3 -12 -12 -12 -9 0 -16 7 -16 16 0 17 22 14 28 -4z m618 9
c-3 -5 4 -12 17 -15 21 -6 21 -7 3 -18 -15 -8 -22 -7 -31 5 -7 9 -15 14 -18
10 -4 -3 -7 -2 -7 4 0 5 3 13 7 16 10 10 35 8 29 -2z m-773 -18 c-7 -2 -19 -2
-25 0 -7 3 -2 5 12 5 14 0 19 -2 13 -5z m412 -13 c3 -5 0 -7 -9 -4 -8 3 -25 0
-38 -6 -22 -11 -22 -10 -4 4 23 18 42 20 51 6z m-399 -28 c-9 -9 -37 8 -31 18
5 8 11 7 21 -1 8 -6 12 -14 10 -17z m978 22 c25 -10 19 -34 -9 -34 -24 0 -34
18 -18 33 8 8 8 8 27 1z m-1491 -33 l22 -22 -25 5 c-14 2 -30 5 -35 5 -6 1
-15 9 -21 19 -10 15 -8 17 13 16 13 0 34 -10 46 -23z m917 9 c0 -5 -9 -10 -20
-10 -11 0 -20 5 -20 10 0 6 9 10 20 10 11 0 20 -4 20 -10z m-170 -30 c-8 -5
-22 -10 -30 -10 -13 0 -13 1 0 10 8 5 22 10 30 10 13 0 13 -1 0 -10z m386 1
c-3 -5 4 -11 15 -14 12 -3 18 -10 14 -16 -10 -16 -45 -13 -45 4 0 8 -6 15 -12
15 -9 0 -8 4 2 10 19 12 33 13 26 1z m-1087 -20 c-13 -11 -26 -17 -29 -14 -6
6 30 33 43 33 5 0 -1 -9 -14 -19z m721 -11 c0 -5 -9 -10 -20 -10 -11 0 -20 5
-20 10 0 6 9 10 20 10 11 0 20 -4 20 -10z m-1110 -44 c-14 -14 -22 -2 -14 18
5 14 9 15 15 4 4 -7 4 -17 -1 -22z m1714 18 c10 -26 7 -34 -13 -34 -26 0 -36
17 -21 35 16 19 26 19 34 -1z m1159 -1 c-7 -2 -21 -2 -30 0 -10 3 -4 5 12 5
17 0 24 -2 18 -5z m-2556 -9 c-3 -3 -12 -4 -19 -1 -8 3 -5 6 6 6 11 1 17 -2
13 -5z m634 -9 c-1 -15 -24 -12 -29 3 -3 9 2 13 12 10 10 -1 17 -7 17 -13z
m384 5 c-3 -5 -14 -10 -23 -9 -14 0 -13 2 3 9 27 11 27 11 20 0z m1615 0 c8
-5 11 -10 5 -10 -5 0 -17 5 -25 10 -8 5 -10 10 -5 10 6 0 17 -5 25 -10z
m-2155 -21 c4 -6 5 -12 2 -15 -7 -7 -37 7 -37 17 0 13 27 11 35 -2z m2275 -5
c24 -4 39 -13 45 -27 13 -29 71 -57 117 -57 31 0 36 -3 31 -17 -4 -11 -8 -12
-11 -5 -2 7 -17 12 -33 12 -39 0 -110 37 -116 60 -3 11 -17 20 -36 23 -18 3
-48 10 -67 16 l-35 10 35 -5 c19 -3 51 -8 70 -10z m-1716 -3 c7 -11 -14 -20
-31 -13 -7 2 -13 8 -13 13 0 12 37 12 44 0z m-1224 -13 c21 1 47 -6 65 -18 34
-23 23 -27 -15 -5 -14 7 -37 11 -52 8 -16 -3 -35 0 -43 7 -30 25 -25 2 6 -29
17 -18 34 -30 36 -27 7 7 63 -15 63 -25 0 -5 11 -4 25 1 22 9 25 7 25 -15 0
-25 -51 -70 -65 -57 -5 4 -5 2 -1 -5 3 -6 2 -14 -4 -18 -6 -4 -8 -10 -5 -15
13 -21 -73 12 -95 37 -21 24 -25 37 -24 89 1 70 9 89 33 78 9 -4 32 -7 51 -6z
m210 2 c0 -5 -5 -10 -11 -10 -5 0 -7 5 -4 10 3 6 8 10 11 10 2 0 4 -4 4 -10z
m840 -20 c-8 -5 -22 -10 -30 -10 -13 0 -13 1 0 10 8 5 22 10 30 10 13 0 13 -1
0 -10z m395 -9 c-3 -5 -1 -12 5 -16 20 -12 10 -26 -17 -23 -34 4 -41 25 -11
37 30 13 30 13 23 2z m-1635 -21 c0 -5 -2 -10 -4 -10 -3 0 -8 5 -11 10 -3 6
-1 10 4 10 6 0 11 -4 11 -10z m1260 0 c0 -5 -9 -10 -20 -10 -11 0 -20 5 -20
10 0 6 9 10 20 10 11 0 20 -4 20 -10z m-185 -10 c-3 -6 1 -13 9 -16 23 -9 20
-24 -5 -24 -15 0 -19 5 -15 15 3 8 1 15 -5 15 -6 0 -7 5 -4 10 3 6 11 10 16
10 6 0 7 -5 4 -10z m1900 0 c-3 -5 -12 -7 -20 -3 -21 7 -19 13 6 13 11 0 18
-4 14 -10z m-2202 -27 c-7 -2 -19 -2 -25 0 -7 3 -2 5 12 5 14 0 19 -2 13 -5z
m160 0 c-7 -2 -19 -2 -25 0 -7 3 -2 5 12 5 14 0 19 -2 13 -5z m915 -26 c3 -12
-4 -17 -23 -17 -23 0 -25 2 -15 21 13 23 33 21 38 -4z m-1065 7 c11 -11 -3
-24 -18 -18 -8 4 -12 10 -9 15 6 11 18 12 27 3z m162 -4 c3 -5 -3 -10 -14 -10
-12 0 -21 5 -21 10 0 6 6 10 14 10 8 0 18 -4 21 -10z m542 -10 c2 -28 -17 -37
-33 -15 -16 21 -10 35 14 35 11 0 18 -8 19 -20z m1874 -16 c17 -21 63 -44 91
-45 13 0 17 -3 10 -6 -7 -3 -23 -2 -36 1 -25 6 -105 66 -89 66 6 0 16 -7 24
-16z m-2041 -28 c0 -2 -9 -6 -20 -9 -11 -3 -18 -1 -14 4 5 9 34 13 34 5z m15
-26 c3 -5 -3 -10 -14 -10 -12 0 -21 5 -21 10 0 6 6 10 14 10 8 0 18 -4 21 -10z
m369 -7 c9 -23 -16 -36 -34 -17 -13 13 -13 16 0 24 21 14 27 12 34 -7z m1376
-8 c0 -9 -6 -12 -15 -9 -8 4 -15 10 -15 15 0 5 7 9 15 9 8 0 15 -7 15 -15z
m-45 -22 c-5 -10 -7 -22 -6 -28 2 -5 0 -7 -4 -3 -4 4 -22 -2 -41 -13 -45 -25
-43 -17 8 31 42 41 57 45 43 13z m-2199 2 c-3 -8 -1 -15 4 -15 6 0 10 -4 10
-10 0 -5 -7 -10 -15 -10 -9 0 -15 9 -15 25 0 14 5 25 11 25 6 0 9 -7 5 -15z
m338 -6 c-7 -11 -34 -12 -34 -1 0 14 11 21 26 15 8 -3 11 -9 8 -14z m-479 1
c3 -5 -1 -10 -9 -10 -8 0 -18 5 -21 10 -3 6 1 10 9 10 8 0 18 -4 21 -10z m309
-6 c8 -21 1 -28 -18 -21 -9 4 -13 13 -10 22 8 20 20 19 28 -1z m556 -51 c0 -7
-9 -13 -20 -13 -11 0 -20 2 -20 4 0 2 -3 11 -6 19 -3 10 1 17 13 19 19 4 33
-8 33 -29z m-170 -33 c-10 -6 -11 -10 -2 -10 6 0 12 -4 12 -10 0 -5 -9 -10
-19 -10 -11 0 -23 5 -26 10 -10 16 4 30 28 30 18 0 19 -2 7 -10z m1860 -6 c0
-8 -4 -12 -10 -9 -5 3 -10 10 -10 16 0 5 5 9 10 9 6 0 10 -7 10 -16z m-2660
-4 c0 -5 -7 -10 -15 -10 -8 0 -15 5 -15 10 0 6 7 10 15 10 8 0 15 -4 15 -10z
m1157 -46 c-2 -2 -12 -1 -22 2 -17 7 -17 8 1 21 17 12 19 12 22 -2 2 -9 2 -19
-1 -21z m-532 16 c-3 -5 -1 -10 6 -10 10 0 10 -3 1 -12 -9 -9 -15 -9 -24 0 -7
7 -8 12 -2 12 5 0 2 5 -6 10 -12 8 -10 10 8 10 13 0 20 -4 17 -10z m-475 -10
c0 -5 -7 -10 -15 -10 -8 0 -15 5 -15 10 0 6 7 10 15 10 8 0 15 -4 15 -10z
m157 -10 c1 -14 -4 -20 -19 -20 -13 0 -18 5 -15 14 3 8 1 17 -6 20 -7 2 -1 5
13 5 19 1 26 -4 27 -19z m153 5 c0 -8 6 -15 13 -15 8 0 7 -4 -3 -10 -16 -10
-44 15 -34 31 8 14 24 10 24 -6z m-580 -45 c0 -5 -7 -10 -15 -10 -8 0 -15 5
-15 10 0 6 7 10 15 10 8 0 15 -4 15 -10z m1130 -16 c0 -8 -10 -14 -25 -14 -29
0 -30 3 -9 24 17 18 34 13 34 -10z m-1260 -50 c0 -8 -7 -14 -16 -14 -13 0 -14
3 -5 13 6 8 7 18 3 22 -4 5 -1 5 6 1 6 -4 12 -14 12 -22z m270 6 c0 -5 -4 -10
-9 -10 -6 0 -13 5 -16 10 -3 6 1 10 9 10 9 0 16 -4 16 -10z m828 -13 c2 -11
-3 -17 -17 -17 -25 0 -38 19 -20 31 19 12 33 6 37 -14z m-680 -9 c17 -17 15
-30 -5 -26 -9 2 -17 11 -19 21 -3 20 7 22 24 5z m496 -36 c-21 -5 -38 20 -21
30 7 4 18 0 25 -10 11 -14 10 -18 -4 -20z m-324 3 c0 -8 -9 -15 -20 -15 -13 0
-18 5 -14 15 4 8 12 15 20 15 8 0 14 -7 14 -15z m164 -1 c4 -9 4 -19 2 -22
-10 -9 -36 8 -36 23 0 20 26 19 34 -1z m-899 -4 c3 -5 -1 -10 -9 -10 -9 0 -16
5 -16 10 0 6 4 10 9 10 6 0 13 -4 16 -10z m271 -25 c-3 -9 -11 -13 -16 -10 -8
5 -7 11 1 21 14 18 24 11 15 -11z m-571 -15 c3 -5 1 -10 -4 -10 -6 0 -11 5
-11 10 0 6 2 10 4 10 3 0 8 -4 11 -10z m1730 -10 c3 -6 -1 -13 -10 -16 -19 -8
-30 0 -20 15 8 14 22 14 30 1z m-1012 -24 c6 -16 -2 -28 -14 -20 -12 7 -11 34
0 34 5 0 11 -6 14 -14z m2017 4 c8 -5 11 -10 5 -10 -5 0 -17 5 -25 10 -8 5
-10 10 -5 10 6 0 17 -5 25 -10z m-2310 -15 c0 -8 -7 -15 -15 -15 -26 0 -18 20
13 29 1 1 2 -6 2 -14z m1129 -31 c-9 -11 -15 -12 -23 -4 -8 8 -7 13 4 20 20
12 33 1 19 -16z m-669 -10 c0 -8 -9 -14 -20 -14 -22 0 -23 1 -14 24 7 18 34
10 34 -10z m-623 -10 c-3 -3 -12 -4 -19 -1 -8 3 -5 6 6 6 11 1 17 -2 13 -5z
m783 -15 c0 -5 -7 -9 -15 -9 -8 0 -15 7 -15 15 0 9 6 12 15 9 8 -4 15 -10 15
-15z m350 6 c0 -8 -9 -15 -20 -15 -11 0 -20 7 -20 15 0 8 9 15 20 15 11 0 20
-7 20 -15z m-180 -9 c0 -19 -27 -28 -33 -11 -7 15 1 25 20 25 7 0 13 -6 13
-14z m-1110 -6 c0 -5 -6 -10 -14 -10 -8 0 -18 5 -21 10 -3 6 3 10 14 10 12 0
21 -4 21 -10z m460 -11 c0 -14 -17 -10 -23 5 -4 10 -1 13 9 9 7 -3 14 -9 14
-14z m148 -57 c2 -7 -3 -12 -12 -12 -9 0 -16 7 -16 16 0 17 22 14 28 -4z
m-323 -2 c-3 -5 -14 -10 -23 -9 -14 0 -13 2 3 9 27 11 27 11 20 0z m-180 -40
c-3 -5 -11 -10 -16 -10 -6 0 -7 5 -4 10 3 6 11 10 16 10 6 0 7 -4 4 -10z m665
-11 c0 -5 -7 -9 -15 -9 -8 0 -15 7 -15 15 0 9 6 12 15 9 8 -4 15 -10 15 -15z
m690 11 c0 -5 -7 -10 -16 -10 -8 0 -12 5 -9 10 3 6 10 10 16 10 5 0 9 -4 9
-10z m-1543 -16 c-3 -3 -12 -4 -19 -1 -8 3 -5 6 6 6 11 1 17 -2 13 -5z m1018
-15 c10 -15 -1 -23 -20 -15 -9 3 -13 10 -10 16 8 13 22 13 30 -1z m-505 -8 c0
-5 -7 -11 -15 -15 -15 -5 -20 5 -8 17 9 10 23 9 23 -2z m688 -9 c2 -7 -6 -12
-17 -12 -21 0 -27 11 -14 24 9 9 26 2 31 -12z m157 8 c-3 -5 -10 -10 -16 -10
-5 0 -9 5 -9 10 0 6 7 10 16 10 8 0 12 -4 9 -10z m-1040 -60 c-3 -5 -13 -10
-21 -10 -8 0 -14 5 -14 10 0 6 9 10 21 10 11 0 17 -4 14 -10z m-410 -20 c3 -5
2 -10 -4 -10 -5 0 -13 5 -16 10 -3 6 -2 10 4 10 5 0 13 -4 16 -10z m200 0 c3
-5 -1 -10 -10 -10 -9 0 -13 5 -10 10 3 6 8 10 10 10 2 0 7 -4 10 -10z m558 3
c-7 -2 -21 -2 -30 0 -10 3 -4 5 12 5 17 0 24 -2 18 -5z m157 -43 c0 -5 -7 -10
-15 -10 -8 0 -15 5 -15 10 0 6 7 10 15 10 8 0 15 -4 15 -10z m-369 -24 c5 3 9
0 9 -6 0 -7 -7 -9 -16 -6 -9 3 -18 6 -20 6 -3 0 -2 5 2 12 6 9 9 9 12 0 2 -7
8 -10 13 -6z m542 -2 c11 -11 -3 -24 -18 -18 -8 4 -12 10 -9 15 6 11 18 12 27
3z m172 -14 c3 -5 -1 -10 -10 -10 -9 0 -13 5 -10 10 3 6 8 10 10 10 2 0 7 -4
10 -10z m-930 -30 c3 -5 2 -10 -4 -10 -5 0 -13 5 -16 10 -3 6 -2 10 4 10 5 0
13 -4 16 -10z m-220 -10 c3 -5 -1 -10 -10 -10 -9 0 -13 5 -10 10 3 6 8 10 10
10 2 0 7 -4 10 -10z m590 -20 c3 -6 -1 -7 -9 -4 -18 7 -21 14 -7 14 6 0 13 -4
16 -10z m170 -50 c3 -5 2 -10 -4 -10 -5 0 -13 5 -16 10 -3 6 -2 10 4 10 5 0
13 -4 16 -10z m226 -523 c-10 -9 -11 -8 -5 6 3 10 9 15 12 12 3 -3 0 -11 -7
-18z m-176 -48 c11 -16 1 -19 -13 -3 -7 8 -8 14 -3 14 5 0 13 -5 16 -11z m202
-25 c-3 -3 -12 -4 -19 -1 -8 3 -5 6 6 6 11 1 17 -2 13 -5z"/>
<path d="M6957 5292 c4 -10 2 -13 -5 -8 -17 10 -80 -29 -67 -42 5 -5 104 41
105 49 0 4 -9 9 -19 12 -15 3 -18 1 -14 -11z"/>
<path d="M7130 5279 c0 -5 5 -7 10 -4 6 3 10 8 10 11 0 2 -4 4 -10 4 -5 0 -10
-5 -10 -11z"/>
<path d="M7105 5270 c-3 -5 -1 -10 4 -10 6 0 11 5 11 10 0 6 -2 10 -4 10 -3 0
-8 -4 -11 -10z"/>
<path d="M7054 5245 c-18 -15 -18 -15 5 -13 14 2 26 9 29 16 5 17 -10 15 -34
-3z"/>
<path d="M6785 5190 c-16 -7 -17 -9 -3 -9 9 -1 20 4 23 9 7 11 7 11 -20 0z"/>
<path d="M6820 5160 c-9 -6 -10 -10 -3 -10 6 0 15 5 18 10 8 12 4 12 -15 0z"/>
<path d="M500 3911 c0 -6 4 -13 10 -16 6 -3 7 1 4 9 -7 18 -14 21 -14 7z"/>
<path d="M590 3848 c-24 -26 -25 -37 -4 -66 19 -28 63 -29 98 -1 32 25 33 53
4 73 -32 23 -74 20 -98 -6z m90 -24 c0 -9 -7 -14 -17 -12 -25 5 -28 28 -4 28
12 0 21 -6 21 -16z"/>
<path d="M452 3778 c-20 -10 -23 -18 -20 -56 3 -41 5 -45 32 -48 67 -7 118 55
81 96 -20 22 -57 25 -93 8z m82 -39 c-3 -5 -14 -4 -26 2 -16 9 -18 13 -7 20
15 9 42 -8 33 -22z"/>
<path d="M364 3729 c3 -16 34 -20 43 -7 3 7 1 8 -5 4 -7 -4 -12 -1 -12 6 0 10
-2 10 -9 -1 -6 -9 -10 -10 -14 -2 -4 8 -5 8 -3 0z"/>
<path d="M637 3712 c-33 -36 -13 -82 40 -95 27 -6 73 32 73 61 0 46 -80 70
-113 34z m83 -23 c0 -11 -27 -12 -34 0 -3 4 -3 11 0 14 8 8 34 -3 34 -14z"/>
<path d="M450 3656 c0 -2 7 -9 15 -16 13 -11 14 -10 9 4 -5 14 -24 23 -24 12z"/>
<path d="M829 3636 c-36 -17 -34 -76 3 -93 56 -27 120 26 90 75 -14 21 -67 31
-93 18z m65 -25 c3 -4 3 -11 0 -14 -8 -8 -34 3 -34 14 0 11 27 12 34 0z"/>
<path d="M605 3560 c-10 -11 -15 -23 -12 -27 4 -3 7 -1 7 5 0 7 7 12 15 12 8
0 15 7 15 15 0 20 -3 19 -25 -5z"/>
<path d="M795 3500 c3 -5 8 -10 11 -10 2 0 4 5 4 10 0 6 -5 10 -11 10 -5 0 -7
-4 -4 -10z"/>
<path d="M1096 3887 c3 -8 11 -14 19 -14 20 0 19 4 -5 17 -15 8 -18 8 -14 -3z"/>
<path d="M1175 3870 c4 -6 10 -8 15 -5 5 3 11 1 15 -5 4 -6 -7 -10 -27 -10
-57 0 -77 -41 -38 -80 47 -47 142 -4 108 49 -7 12 -16 21 -19 21 -4 0 -9 9
-12 20 -3 12 -14 20 -27 20 -12 0 -18 -4 -15 -10z m35 -66 c0 -16 -26 -19 -35
-4 -3 6 -4 14 0 20 8 13 35 1 35 -16z"/>
<path d="M1169 3697 c-55 -28 -25 -97 43 -97 32 0 40 5 50 26 15 32 3 53 -39
70 -23 10 -35 10 -54 1z m59 -35 c2 -7 -6 -12 -17 -12 -21 0 -27 11 -14 24 9
9 26 2 31 -12z"/>
<path d="M1343 3700 c-33 -13 -32 -64 1 -85 29 -20 75 -16 89 6 17 27 0 66
-34 78 -18 6 -32 11 -33 10 -1 0 -11 -4 -23 -9z m55 -37 c2 -8 -5 -13 -17 -13
-12 0 -21 6 -21 16 0 18 31 15 38 -3z"/>
<path d="M1163 3548 c-17 -8 -23 -20 -23 -45 0 -28 5 -36 31 -47 38 -16 71
-10 88 15 18 29 4 59 -35 75 -18 8 -35 14 -36 13 -2 0 -13 -5 -25 -11z m56
-27 c9 -6 10 -11 2 -15 -13 -8 -31 1 -31 15 0 11 11 11 29 0z"/>
<path d="M1331 3543 c-29 -20 -27 -57 6 -83 63 -49 128 16 78 78 -1 1 -16 7
-33 11 -22 7 -36 5 -51 -6z m53 -19 c22 -9 20 -24 -3 -24 -21 0 -34 13 -24 24
8 7 8 7 27 0z"/>
<path d="M1318 3396 c-29 -15 -36 -61 -12 -87 22 -24 76 -25 97 -1 45 50 -22
119 -85 88z m47 -27 c10 -15 -1 -23 -20 -15 -9 3 -13 10 -10 16 8 13 22 13 30
-1z"/>
<path d="M1274 3252 c-19 -12 -33 -48 -28 -69 6 -22 42 -43 74 -43 26 0 50 27
50 55 0 40 -64 79 -96 57z m52 -40 c1 -7 0 -8 -3 -2 -8 17 -23 11 -16 -7 4
-11 3 -14 -5 -9 -7 4 -12 14 -12 22 0 18 32 15 36 -4z"/>
<path d="M1453 3229 c-56 -21 -47 -95 15 -113 26 -7 36 -5 52 9 50 45 -3 128
-67 104z m38 -35 c12 -14 11 -16 -5 -13 -11 2 -21 10 -24 17 -5 17 13 15 29
-4z"/>
<path d="M1220 3107 c-17 -8 -26 -22 -28 -43 -5 -52 46 -80 99 -55 21 11 26
19 23 44 -4 31 -35 67 -58 67 -6 0 -22 -6 -36 -13z m51 -23 c12 -14 11 -16 -5
-13 -11 2 -21 10 -24 17 -5 17 13 15 29 -4z"/>
<path d="M1366 3068 c-23 -33 -20 -65 8 -83 37 -24 78 -16 95 19 12 25 11 31
-6 55 -27 35 -75 40 -97 9z m64 -13 c10 -13 9 -15 -9 -15 -12 0 -21 6 -21 15
0 8 4 15 9 15 5 0 14 -7 21 -15z"/>
<path d="M1536 3029 c-15 -12 -26 -30 -26 -44 0 -26 42 -65 69 -65 29 0 61 30
61 56 0 27 -40 74 -63 74 -8 0 -26 -9 -41 -21z m54 -19 c8 -5 11 -12 8 -16
-10 -9 -38 3 -38 16 0 12 10 13 30 0z"/>
<path d="M1685 2950 c-20 -38 -19 -53 5 -75 11 -10 18 -21 15 -24 -11 -18 67
4 80 22 20 29 19 49 -6 81 -29 37 -73 36 -94 -4z m69 -9 c7 -11 -14 -20 -31
-13 -7 2 -13 8 -13 13 0 12 37 12 44 0z"/>
<path d="M1308 2953 c-10 -2 -18 -8 -18 -13 0 -5 -6 -15 -14 -23 -12 -12 -13
-18 -1 -40 7 -14 10 -28 7 -30 -4 -2 -2 -2 5 -1 7 2 15 -1 18 -6 8 -13 54 -4
75 15 11 10 20 28 20 41 0 22 -23 54 -40 54 -5 0 -14 2 -22 4 -7 2 -21 2 -30
-1z m52 -34 c0 -11 -27 -12 -34 0 -3 4 -3 11 0 14 8 8 34 -3 34 -14z"/>
<path d="M1850 2925 c0 -8 4 -15 10 -15 5 0 7 7 4 15 -4 8 -8 15 -10 15 -2 0
-4 -7 -4 -15z"/>
<path d="M1450 2892 c-13 -10 -23 -31 -24 -50 -2 -26 3 -34 29 -46 17 -8 39
-13 50 -11 11 2 23 4 26 4 12 2 28 51 22 68 -18 52 -63 67 -103 35z m58 -20
c2 -7 -3 -12 -12 -12 -9 0 -16 7 -16 16 0 17 22 14 28 -4z"/>
<path d="M1455 2770 c3 -5 11 -10 16 -10 6 0 7 5 4 10 -3 6 -11 10 -16 10 -6
0 -7 -4 -4 -10z"/>
<path d="M1546 2751 c-3 -5 5 -11 19 -13 30 -6 32 -2 6 12 -11 6 -22 6 -25 1z"/>
<path d="M1690 2679 c0 -5 5 -7 10 -4 6 3 10 8 10 11 0 2 -4 4 -10 4 -5 0 -10
-5 -10 -11z"/>
<path d="M8415 3370 c-3 -5 -1 -10 4 -10 6 0 11 5 11 10 0 6 -2 10 -4 10 -3 0
-8 -4 -11 -10z"/>
<path d="M8393 3327 c-3 -6 -1 -7 5 -3 7 4 12 2 12 -3 0 -6 5 -11 10 -11 6 0
10 6 10 13 0 16 -28 18 -37 4z"/>
<path d="M815 2960 c10 -11 20 -20 23 -20 3 0 -3 9 -13 20 -10 11 -20 20 -23
20 -3 0 3 -9 13 -20z"/>
<path d="M290 2936 c0 -8 14 -16 32 -18 l32 -5 -23 18 c-28 23 -41 24 -41 5z"/>
<path d="M607 2666 c-4 -9 3 -16 18 -18 15 -3 26 0 29 9 9 23 7 29 -5 13 -8
-11 -12 -12 -16 -2 -6 16 -20 15 -26 -2z"/>
<path d="M690 2620 c0 -5 5 -10 11 -10 5 0 7 5 4 10 -3 6 -8 10 -11 10 -2 0
-4 -4 -4 -10z"/>
<path d="M651 2603 c3 -18 -14 -52 -22 -47 -5 3 -14 -6 -21 -20 -6 -14 -15
-26 -20 -26 -4 0 -8 -4 -8 -10 0 -16 66 -11 81 6 10 12 10 17 1 23 -9 5 -9 13
1 34 6 15 16 27 20 27 5 0 5 5 2 10 -7 12 -36 14 -34 3z"/>
<path d="M8950 5391 c-8 -6 -17 -8 -21 -5 -4 2 -12 -3 -19 -11 -10 -12 -8 -22
14 -56 15 -22 33 -42 41 -46 8 -3 15 -11 15 -19 0 -8 5 -14 10 -14 6 0 10 33
10 80 0 70 -2 80 -17 80 -10 0 -25 -4 -33 -9z m-17 -24 c3 -8 -1 -14 -9 -14
-15 0 -18 9 -7 20 9 9 10 9 16 -6z"/>
<path d="M7990 5351 c0 -6 4 -13 10 -16 6 -3 7 1 4 9 -7 18 -14 21 -14 7z"/>
<path d="M718 5123 c7 -3 16 -2 19 1 4 3 -2 6 -13 5 -11 0 -14 -3 -6 -6z"/>
<path d="M130 5059 c0 -8 -3 -25 -5 -39 -5 -22 -4 -21 6 4 9 21 14 25 20 15 5
-8 9 -9 9 -3 0 6 -7 17 -15 24 -12 10 -15 10 -15 -1z"/>
<path d="M6175 5060 c11 -5 34 -8 50 -8 l30 0 -30 8 c-16 4 -39 8 -50 8 l-20
1 20 -9z"/>
<path d="M8180 5054 c-90 -11 -412 -56 -475 -65 -195 -31 -361 -93 -334 -125
7 -8 7 -14 -1 -19 -7 -4 2 -18 22 -36 37 -33 30 -33 182 0 54 11 108 20 120
20 20 -1 20 -2 1 -6 -181 -40 -295 -82 -326 -119 -22 -26 -34 -64 -19 -64 6 0
64 13 128 29 223 56 452 85 595 74 180 -13 218 -51 275 -278 16 -66 36 -166
43 -222 7 -57 17 -103 21 -103 11 0 10 155 -2 247 -25 186 -32 232 -47 293
-15 60 -12 75 12 70 9 -1 69 68 71 83 1 6 11 40 23 74 31 91 28 110 -16 128
-37 16 -206 27 -273 19z"/>
<path d="M6303 5043 c9 -2 23 -2 30 0 6 3 -1 5 -18 5 -16 0 -22 -2 -12 -5z"/>
<path d="M6474 4982 c3 -5 0 -13 -6 -15 -9 -4 -10 -6 -1 -6 17 -1 25 16 12 25
-7 4 -9 3 -5 -4z"/>
<path d="M45 4950 c10 -11 25 -20 34 -20 12 1 10 5 -8 20 -30 26 -49 26 -26 0z"/>
<path d="M6175 4960 c-3 -5 -3 -10 2 -11 4 0 -8 -7 -27 -14 -19 -7 -67 -14
-107 -14 -69 -1 -100 -14 -73 -31 10 -6 9 -9 -1 -13 -16 -5 -1 -27 22 -30 8
-2 20 -6 26 -10 7 -5 22 -2 35 7 15 11 26 12 39 5 14 -7 34 -1 84 27 l65 36 0
-35 c0 -72 39 -118 48 -58 2 13 0 21 -5 18 -6 -4 -10 0 -10 8 0 8 6 15 14 15
23 0 16 58 -9 71 -13 7 -27 18 -31 25 -9 16 -63 19 -72 4z"/>
<path d="M287 4919 c7 -7 15 -10 18 -7 3 3 -2 9 -12 12 -14 6 -15 5 -6 -5z"/>
<path d="M6380 4883 c5 -21 12 -51 15 -66 3 -17 11 -27 18 -24 7 2 21 1 32 -3
32 -11 43 8 32 56 -9 37 -16 45 -49 59 -54 21 -57 20 -48 -22z"/>
<path d="M311 4896 c-12 -14 -11 -16 3 -10 10 4 25 -1 35 -10 14 -13 33 -16
70 -14 47 3 49 4 33 20 -9 9 -42 19 -73 23 -44 5 -58 4 -68 -9z"/>
<path d="M465 4900 c3 -5 13 -10 21 -10 8 0 14 5 14 10 0 6 -9 10 -21 10 -11
0 -17 -4 -14 -10z"/>
<path d="M6260 4769 c0 -5 5 -7 10 -4 6 3 10 8 10 11 0 2 -4 4 -10 4 -5 0 -10
-5 -10 -11z"/>
<path d="M7968 4683 c6 -2 18 -2 25 0 6 3 1 5 -13 5 -14 0 -19 -2 -12 -5z"/>
<path d="M8085 4670 c-4 -6 -11 -8 -16 -5 -5 4 -9 1 -9 -4 0 -14 17 -14 25 -1
4 6 11 8 16 5 5 -4 9 -1 9 4 0 14 -17 14 -25 1z"/>
<path d="M7913 4633 c-9 -29 -9 -39 0 -45 8 -5 4 -8 -8 -8 -14 0 -21 7 -22 21
-3 41 -24 37 -37 -7 -8 -28 18 -35 96 -27 50 5 58 3 58 -11 0 -12 9 -16 43
-15 23 1 32 4 20 6 -13 2 -23 7 -23 9 0 9 28 34 38 34 8 0 22 22 22 36 0 2 -9
4 -20 4 -13 0 -20 -7 -20 -20 0 -13 -7 -20 -19 -20 -16 0 -20 8 -23 38 -3 36
-4 37 -48 40 -44 3 -45 2 -57 -35z"/>
<path d="M0 4578 l0 -33 15 29 c18 35 18 36 0 36 -10 0 -15 -10 -15 -32z"/>
<path d="M8798 4578 c5 -5 16 -8 23 -6 8 3 3 7 -10 11 -17 4 -21 3 -13 -5z"/>
<path d="M8880 4540 c0 -5 4 -10 9 -10 5 0 18 -3 28 -6 16 -6 16 -5 -2 9 -23
19 -35 21 -35 7z"/>
<path d="M6118 4489 c-18 -17 -27 -28 -20 -24 9 5 11 -4 7 -37 l-5 -43 14 43
c8 23 21 54 30 67 22 33 13 31 -26 -6z"/>
<path d="M5907 4364 c9 -23 59 -21 83 3 13 13 10 13 -17 -1 -18 -9 -33 -12
-33 -7 0 5 -9 11 -19 14 -14 3 -18 1 -14 -9z"/>
<path d="M6017 4353 c-4 -3 -7 -11 -7 -17 0 -6 5 -5 12 2 6 6 9 14 7 17 -3 3
-9 2 -12 -2z"/>
<path d="M195 3009 c-10 -15 3 -25 16 -12 7 7 7 13 1 17 -6 3 -14 1 -17 -5z"/>
<path d="M11 2966 c-10 -12 -8 -13 8 -9 12 3 21 9 21 14 0 14 -16 11 -29 -5z"/>
<path d="M144 1926 c15 -12 16 -16 5 -16 -8 0 -21 6 -28 13 -10 9 -15 9 -18 0
-2 -7 -10 -10 -16 -8 -7 3 -18 1 -26 -4 -11 -7 -6 -16 23 -42 28 -24 34 -34
24 -40 -9 -6 -9 -9 -1 -9 6 0 15 5 18 10 4 6 20 9 36 6 25 -4 28 -2 18 10 -6
8 -14 12 -16 10 -5 -4 -53 42 -53 51 0 2 9 -1 19 -7 27 -14 41 -13 41 5 0 8
-10 19 -22 25 -22 11 -22 10 -4 -4z m-28 -51 c16 -14 24 -25 18 -25 -6 0 -21
11 -34 25 -30 32 -21 32 16 0z"/>
<path d="M2795 1919 c-4 -6 -5 -12 -2 -15 2 -3 7 2 10 11 7 17 1 20 -8 4z"/>
<path d="M2762 1873 c-8 -17 -12 -42 -10 -55 4 -22 5 -22 17 6 6 17 11 41 9
55 -3 26 -3 26 -16 -6z"/>
<path d="M2676 1877 c-16 -12 -17 -17 -6 -38 16 -30 29 -39 47 -32 16 6 17 39
2 48 -6 4 -8 13 -5 21 7 18 -15 18 -38 1z"/>
<path d="M28 1873 c7 -3 16 -2 19 1 4 3 -2 6 -13 5 -11 0 -14 -3 -6 -6z"/>
<path d="M60 1871 c0 -6 4 -13 10 -16 6 -3 7 1 4 9 -7 18 -14 21 -14 7z"/>
<path d="M76 1827 c3 -10 9 -15 12 -12 3 3 0 11 -7 18 -10 9 -11 8 -5 -6z"/>
<path d="M2722 1778 c-18 -18 -14 -34 8 -35 11 -1 20 3 20 8 0 6 -4 7 -10 4
-5 -3 -10 -2 -10 4 0 5 5 11 12 13 8 3 8 7 2 11 -6 3 -16 1 -22 -5z"/>
<path d="M3014 1739 c-4 -7 -3 -9 4 -5 5 3 13 0 15 -6 4 -9 6 -10 6 -1 1 17
-16 25 -25 12z"/>
<path d="M2621 1664 c0 -11 3 -14 6 -6 3 7 2 16 -1 19 -3 4 -6 -2 -5 -13z"/>
<path d="M3285 1630 c3 -5 11 -10 16 -10 6 0 7 5 4 10 -3 6 -11 10 -16 10 -6
0 -7 -4 -4 -10z"/>
<path d="M2375 1133 c-36 -5 -108 -22 -240 -57 -54 -15 -105 -24 -113 -21 -7
2 -10 0 -7 -5 3 -6 -1 -10 -9 -10 -9 0 -16 -5 -16 -11 0 -5 -16 -17 -36 -25
-45 -19 -66 -66 -63 -140 2 -30 0 -57 -4 -61 -14 -13 -6 -49 13 -61 24 -14 26
-32 5 -32 -8 0 -15 5 -15 10 0 6 -4 10 -8 10 -12 0 -53 -90 -47 -100 9 -14 12
-80 5 -80 -4 0 -7 -14 -7 -31 0 -23 3 -27 9 -15 5 9 7 20 4 25 -4 5 14 21 39
35 25 15 45 30 45 34 0 5 16 6 35 4 21 -3 42 1 52 9 15 13 15 12 2 -9 -8 -13
-20 -20 -28 -17 -10 4 -8 -2 5 -17 14 -17 14 -19 2 -9 -9 7 -21 10 -27 7 -5
-3 -11 -1 -13 6 -3 7 -20 -3 -44 -25 -21 -20 -34 -37 -27 -37 6 0 15 4 18 10
7 12 45 -10 45 -26 0 -7 -9 -14 -20 -17 -18 -4 -20 -2 -14 16 6 21 6 21 -13 5
-11 -10 -25 -18 -31 -18 -25 0 -10 -18 28 -35 23 -10 44 -23 47 -28 9 -14 -37
3 -79 29 -43 27 -48 29 -48 13 0 -17 32 -38 58 -39 12 0 22 -6 22 -13 0 -19
-51 -13 -66 7 -21 30 -12 -123 10 -157 10 -15 20 -44 23 -64 8 -68 21 -137 32
-165 9 -23 16 -28 46 -28 22 0 34 4 30 10 -3 6 1 10 9 10 9 0 16 -5 16 -10 0
-7 74 -10 215 -9 196 1 215 2 215 18 0 9 6 26 14 37 11 14 12 23 3 34 -6 8 -7
12 -2 7 5 -4 21 5 36 19 17 16 34 24 43 21 9 -4 16 -1 17 6 0 7 4 3 8 -8 7
-17 10 -14 21 20 8 22 13 46 11 54 -1 7 2 10 8 7 5 -4 7 -21 4 -40 -4 -25 -1
-35 11 -39 9 -4 16 -3 16 2 0 11 49 30 73 29 25 -2 21 -37 -5 -47 l-23 -8 22
-7 c26 -8 37 -32 17 -40 -18 -7 -46 3 -39 15 3 4 -5 15 -17 22 -31 20 -78 30
-78 17 0 -5 3 -10 8 -10 4 0 12 -8 18 -18 10 -16 8 -17 -22 -14 -19 2 -37 8
-40 13 -3 5 -11 9 -19 9 -9 0 -14 -17 -17 -50 l-3 -50 215 1 215 2 32 36 c35
39 42 56 18 47 -10 -4 -22 5 -35 27 -10 17 -24 37 -29 44 -14 16 -14 26 1 41
8 8 19 4 46 -19 25 -22 37 -27 47 -19 12 10 30 85 40 165 7 55 6 295 -1 307
-3 5 -7 41 -10 81 -4 89 -12 137 -23 137 -4 0 -8 13 -8 29 0 17 3 30 6 29 21
-2 28 4 24 22 -3 11 -12 20 -19 20 -8 0 -14 5 -14 11 0 5 5 7 10 4 13 -8 13
16 0 50 -8 20 -14 24 -23 17 -9 -8 -23 0 -51 28 -27 28 -50 40 -80 45 -22 3
-75 12 -116 20 -69 12 -296 17 -365 8z m66 -90 c-25 -3 -50 -11 -55 -18 -7 -9
-21 -12 -41 -7 l-30 6 40 12 c22 7 60 12 85 11 l45 0 -44 -4z m243 1 c9 -4 16
-18 16 -33 0 -15 6 -33 13 -40 10 -11 9 -12 -2 -6 -7 4 -17 2 -21 -5 -14 -22
-74 -4 -93 29 -24 41 -13 61 33 61 21 0 45 -3 54 -6z m-581 -41 c-7 -2 -19 -2
-25 0 -7 3 -2 5 12 5 14 0 19 -2 13 -5z m-59 -28 c-9 -14 -19 -23 -22 -20 -5
4 26 45 35 45 2 0 -4 -11 -13 -25z m697 8 c13 -16 12 -17 -3 -4 -17 13 -22 21
-14 21 2 0 10 -8 17 -17z m-510 -19 l24 -27 -25 13 c-14 8 -36 19 -50 27 l-25
13 26 0 c15 0 36 -11 50 -26z m-94 -12 c-9 -9 -22 -39 -29 -65 -13 -50 -59
-104 -78 -92 -7 5 -3 17 13 38 13 18 32 48 42 67 21 42 44 70 58 70 6 0 3 -8
-6 -18z m63 -26 c0 -12 -5 -7 -19 24 -11 24 -11 24 3 6 9 -11 16 -24 16 -30z
m614 -48 c-2 -4 2 -10 9 -15 8 -4 20 -19 27 -32 10 -19 14 -21 22 -10 8 12 9
12 6 0 -7 -25 -22 -22 -40 9 -9 16 -39 44 -65 61 -44 29 -44 31 5 12 16 -6 16
-5 0 14 -10 11 -18 26 -18 33 0 7 13 -4 29 -26 16 -21 27 -42 25 -46z m-125
35 c-25 -3 -46 -15 -69 -38 -38 -39 -33 -55 16 -55 23 0 33 -4 28 -11 -3 -6
-17 -8 -31 -4 -23 5 -24 5 -9 -10 19 -19 20 -31 5 -41 -8 -4 -7 -9 2 -14 17
-11 -4 -60 -41 -100 -22 -23 -37 -30 -67 -30 -21 0 -45 5 -53 10 -11 7 -4 10
27 10 51 0 73 8 73 26 0 8 5 14 10 14 6 0 10 14 10 31 0 18 -4 28 -10 24 -6
-4 -9 -1 -8 7 2 7 12 15 22 18 25 7 29 21 12 42 -9 13 -30 18 -74 20 -33 1
-58 6 -56 10 3 4 -14 9 -38 9 -39 1 -40 2 -13 8 17 4 37 4 46 0 8 -4 21 -4 29
1 7 4 24 4 37 -1 32 -12 33 -12 33 5 0 26 80 76 119 74 l36 -1 -36 -4z m178
-60 c-3 -10 -5 -2 -5 17 0 19 2 27 5 18 2 -10 2 -26 0 -35z m-667 33 c0 -2 -6
-9 -14 -15 -11 -9 -16 -9 -22 0 -4 7 -3 9 4 5 6 -3 13 -2 17 4 6 10 15 14 15
6z m142 -26 c-2 -17 -10 -30 -18 -30 -12 0 -12 5 1 30 9 17 17 30 19 30 1 0 1
-13 -2 -30z m-152 -20 c0 -5 -4 -10 -10 -10 -5 0 -10 5 -10 10 0 6 5 10 10 10
6 0 10 -4 10 -10z m5 -91 c-16 -26 -23 -34 -19 -19 8 29 35 73 41 67 2 -2 -8
-24 -22 -48z m192 45 c-3 -3 -12 -4 -19 -1 -8 3 -5 6 6 6 11 1 17 -2 13 -5z
m43 -7 c0 -8 -11 -19 -25 -25 -31 -14 -32 -6 -2 19 27 22 27 22 27 6z m-452
-23 c12 -4 22 -10 22 -14 0 -10 -49 0 -56 11 -6 10 2 11 34 3z m883 -20 c-11
-15 -18 -31 -14 -38 3 -6 1 -6 -7 1 -11 11 -10 17 10 38 31 33 37 32 11 -1z
m-749 -18 c15 0 32 -10 39 -21 11 -18 10 -18 -3 -7 -13 10 -17 10 -22 -3 -3
-8 -3 -21 0 -29 4 -9 -6 -18 -30 -26 -56 -18 -79 -11 -88 30 -6 29 -4 38 14
53 14 12 29 16 42 11 12 -3 33 -7 48 -8z m658 -37 c29 -30 73 -87 84 -109 4
-8 0 -6 -8 4 -9 11 -16 15 -16 9 0 -6 9 -22 20 -36 21 -27 26 -52 11 -61 -11
-7 -84 71 -107 115 -20 39 -31 24 -15 -21 11 -32 1 -39 -22 -15 -13 12 -19 12
-53 -6 -34 -17 -39 -17 -42 -4 -4 16 32 68 41 59 3 -3 10 3 16 14 8 16 7 21
-4 26 -22 8 -18 29 4 23 14 -3 18 -1 14 9 -3 8 0 21 7 29 14 17 24 12 70 -36z
m-370 30 c0 -5 -5 -7 -10 -4 -6 4 -27 -7 -48 -23 -20 -16 -48 -35 -62 -42 -54
-28 -60 -38 -43 -78 8 -20 19 -47 24 -59 5 -15 14 -21 24 -17 14 6 13 8 -2 20
-17 12 -16 13 5 14 30 0 39 -26 17 -50 -11 -12 -14 -26 -10 -39 5 -18 10 -19
27 -10 42 23 48 -24 6 -50 -19 -12 -23 -11 -39 10 -10 13 -19 30 -19 37 0 12
-14 1 -71 -55 -39 -38 -103 -42 -150 -10 -20 13 -49 29 -65 35 l-29 10 32 1
c17 1 40 4 50 8 10 3 14 2 10 -3 -11 -11 65 -33 79 -22 7 5 14 3 17 -7 4 -8
13 -12 21 -9 18 7 99 114 86 114 -5 0 -13 12 -16 27 -4 15 -13 38 -21 52 -14
25 -14 24 -11 -21 2 -27 0 -48 -3 -48 -11 0 -20 67 -13 94 3 14 1 40 -5 57
-15 43 -6 48 16 11 l19 -30 79 49 c80 49 105 58 105 38z m154 -1 c-3 -4 -11
-5 -19 -1 -21 7 -19 12 4 10 11 0 18 -5 15 -9z m121 2 c3 -6 -1 -7 -9 -4 -18
7 -21 14 -7 14 6 0 13 -4 16 -10z m-711 -19 c4 -5 -3 -7 -14 -4 -23 6 -26 13
-6 13 8 0 17 -4 20 -9z m431 -11 c-3 -5 -12 -10 -18 -10 -7 0 -6 4 3 10 19 12
23 12 15 0z m135 -20 c-8 -5 -19 -10 -25 -10 -5 0 -3 5 5 10 8 5 20 10 25 10
6 0 3 -5 -5 -10z m-164 -67 c-10 -10 -19 5 -10 18 6 11 8 11 12 0 2 -7 1 -15
-2 -18z m571 -25 c-16 -10 -21 -2 -13 19 6 15 9 15 16 3 6 -9 5 -17 -3 -22z
m-1067 -9 c0 -5 -4 -9 -10 -9 -5 0 -10 7 -10 16 0 8 5 12 10 9 6 -3 10 -10 10
-16z m223 -9 c3 -12 0 -20 -8 -20 -14 0 -27 25 -18 34 11 11 21 6 26 -14z
m283 -16 c10 -8 13 -12 6 -9 -8 4 -26 11 -40 15 -22 7 -23 8 -6 9 11 1 29 -6
40 -15z m394 -19 c0 -12 -19 -12 -23 0 -4 9 -1 12 9 8 7 -3 14 -7 14 -8z
m-746 -17 c3 -13 0 -27 -6 -33 -8 -7 -9 -6 -4 2 4 7 2 22 -4 33 -6 11 -7 20
-2 20 6 0 12 -10 16 -22z m532 7 c10 -8 33 -15 49 -15 36 -2 89 -31 93 -52 2
-9 -4 -22 -12 -31 -8 -8 -13 -17 -10 -19 2 -3 -5 -13 -15 -22 -18 -17 -21 -17
-55 -1 -51 24 -56 39 -7 19 40 -16 41 -16 60 7 14 17 16 26 8 31 -9 6 -9 8 1
8 6 0 12 7 12 16 0 12 -4 14 -12 7 -41 -32 -110 -20 -152 25 -31 35 1 57 40
27z m-486 -10 c11 -13 10 -14 -5 -8 -15 5 -17 3 -11 -13 5 -14 4 -16 -4 -8 -6
6 -8 18 -4 27 8 21 8 21 24 2z m-70 -44 c0 -3 -15 -7 -33 -7 -17 -1 -24 1 -14
3 9 2 17 11 17 20 0 13 3 13 15 3 8 -7 15 -15 15 -19z m770 20 c0 -6 -4 -13
-10 -16 -5 -3 -10 1 -10 9 0 9 5 16 10 16 6 0 10 -4 10 -9z m67 -53 c-3 -24
-8 -51 -12 -60 -7 -19 -35 -13 -35 7 0 8 -7 21 -16 30 -26 26 -4 65 37 65 31
0 31 0 26 -42z m83 22 c11 -11 16 -20 12 -20 -5 0 -17 9 -27 20 -10 11 -15 20
-12 20 4 0 16 -9 27 -20z m-447 -51 c-3 -10 -10 -19 -15 -19 -6 0 -7 -11 -4
-24 3 -14 2 -28 -4 -31 -6 -4 -10 6 -10 24 0 24 -4 31 -20 31 -11 0 -20 7 -20
15 0 16 20 16 32 0 4 -5 8 0 8 12 0 16 5 20 19 16 13 -3 17 -11 14 -24z m397
-10 c0 -5 -4 -9 -8 -9 -5 0 -9 7 -9 15 0 8 4 12 9 9 4 -3 8 -9 8 -15z m-312
-24 c-3 -3 -9 2 -12 12 -6 14 -5 15 5 6 7 -7 10 -15 7 -18z m312 -3 c0 -5 -12
-14 -27 -21 l-28 -12 25 21 c29 22 30 23 30 12z m112 -9 c24 -22 23 -48 -4
-73 -24 -22 -43 -27 -32 -7 4 6 -7 -4 -24 -23 -17 -19 -31 -41 -32 -47 0 -23
-25 -14 -58 20 -26 26 -30 36 -20 44 14 10 48 26 61 27 4 1 7 6 8 11 0 6 8 18
16 28 9 9 12 17 7 18 -13 1 28 17 45 18 8 1 23 -6 33 -16z m-754 -18 c-3 -3
-9 2 -12 12 -6 14 -5 15 5 6 7 -7 10 -15 7 -18z m-333 -35 c-3 -5 -2 -10 4
-10 6 0 15 -9 21 -20 10 -19 9 -20 -17 -16 -15 2 -31 5 -35 5 -11 1 -10 31 1
31 5 0 11 -6 14 -12 2 -7 2 -3 0 10 -2 12 1 22 7 22 6 0 8 -4 5 -10z m340 -38
c-3 -3 -11 0 -18 7 -9 10 -8 11 6 5 10 -3 15 -9 12 -12z m515 2 c0 -8 -4 -12
-10 -9 -5 3 -10 10 -10 16 0 5 5 9 10 9 6 0 10 -7 10 -16z m-555 -4 c-3 -5
-12 -10 -18 -10 -7 0 -6 4 3 10 19 12 23 12 15 0z m233 -31 c-3 -20 -5 -19 -9
9 -3 20 -2 29 4 23 5 -5 7 -19 5 -32z m-153 21 c-3 -5 0 -20 6 -32 7 -13 14
-39 15 -59 l2 -36 -49 23 c-27 13 -55 24 -62 24 -23 0 -27 11 -10 36 10 16 25
24 44 24 19 0 29 5 29 15 0 8 7 15 16 15 8 0 12 -4 9 -10z m444 -14 c9 -11 8
-15 -5 -20 -17 -6 -44 9 -44 25 0 14 36 10 49 -5z m-733 -43 c-10 -10 -19 5
-10 18 6 11 8 11 12 0 2 -7 1 -15 -2 -18z m99 -33 c-21 -23 -8 -32 70 -53 85
-22 146 -46 118 -47 -12 0 -33 4 -47 10 -31 12 -57 3 -49 -16 3 -8 1 -14 -5
-14 -15 0 -24 32 -11 40 13 9 -24 20 -68 20 -17 0 -44 5 -60 11 -27 10 -27 11
-9 24 10 8 22 12 26 10 4 -3 13 2 20 10 10 12 10 22 1 43 l-11 27 20 -24 c19
-22 19 -25 5 -41z m555 19 c0 -6 -4 -7 -10 -4 -5 3 -10 11 -10 16 0 6 5 7 10
4 6 -3 10 -11 10 -16z m67 5 c-3 -3 -12 -4 -19 -1 -8 3 -5 6 6 6 11 1 17 -2
13 -5z m-197 -19 c-7 -8 -17 -12 -22 -9 -6 4 -5 10 3 15 22 14 33 10 19 -6z
m-490 -5 c0 -5 -18 -10 -40 -10 -22 0 -40 5 -40 10 0 6 18 10 40 10 22 0 40
-4 40 -10z m864 -3 c14 -11 16 -19 9 -47 -14 -53 -37 -45 -41 13 -3 49 3 55
32 34z m-64 -52 c7 -9 8 -15 2 -15 -5 0 -12 7 -16 15 -3 8 -4 15 -2 15 2 0 9
-7 16 -15z m-850 2 c0 -2 -10 -12 -22 -23 l-23 -19 19 23 c18 21 26 27 26 19z
m390 -37 c-8 -5 -22 -10 -30 -10 -13 0 -13 1 0 10 8 5 22 10 30 10 13 0 13 -1
0 -10z m420 -5 c14 -8 21 -14 15 -14 -5 0 -21 6 -35 14 -14 8 -20 14 -15 14 6
0 21 -6 35 -14z m-113 -37 c-3 -7 -5 -2 -5 12 0 14 2 19 5 13 2 -7 2 -19 0
-25z m-81 -9 c3 -5 -9 -9 -25 -9 -20 0 -31 5 -31 14 0 15 46 11 56 -5z m41 5
c-3 -3 -12 -4 -19 -1 -8 3 -5 6 6 6 11 1 17 -2 13 -5z m173 -4 c0 -5 -5 -10
-11 -10 -5 0 -7 5 -4 10 3 6 8 10 11 10 2 0 4 -4 4 -10z"/>
<path d="M2786 647 c3 -10 9 -15 12 -12 3 3 0 11 -7 18 -10 9 -11 8 -5 -6z"/>
<path d="M4139 906 c-2 -2 -22 -6 -44 -9 -169 -23 -557 -169 -642 -241 -28
-24 -33 -34 -33 -73 0 -24 9 -68 21 -96 11 -29 29 -72 39 -97 26 -65 38 -93
50 -110 5 -8 30 -60 55 -115 25 -55 50 -108 55 -117 6 -10 10 -25 10 -33 0
-13 54 -15 445 -15 l445 0 40 26 c49 33 57 65 40 166 -17 102 -83 338 -125
449 -52 135 -96 229 -106 223 -5 -3 -9 -1 -9 4 0 22 -73 42 -154 42 -45 0 -85
-2 -87 -4z"/>
<path d="M3188 330 c4 -139 -6 -267 -24 -314 -5 -14 4 -16 68 -16 l74 0 -43
151 c-24 82 -51 192 -61 242 l-18 92 4 -155z"/>
<path d="M1846 182 c-2 -4 -1 -14 5 -22 7 -12 9 -10 9 8 0 23 -5 28 -14 14z"/>
</g>
</svg>
